<?xml version="1.0" encoding="utf-8"?>
<!-- Generator: Adobe Illustrator 16.0.4, SVG Export Plug-In . SVG Version: 6.00 Build 0)  -->
<!DOCTYPE svg PUBLIC "-//W3C//DTD SVG 1.1//EN" "http://www.w3.org/Graphics/SVG/1.1/DTD/svg11.dtd">
<svg version="1.1" id="Ebene_1" xmlns="http://www.w3.org/2000/svg" xmlns:xlink="http://www.w3.org/1999/xlink" x="0px" y="0px"
	 width="12px" height="2000px" viewBox="0 0 12 2000" enable-background="new 0 0 12 2000" xml:space="preserve">
<g>
	<path fill="#3F3B2C" d="M7.788,1993.5c0,3.6,1,5.8,4.15,6.5c-5.65,0-7.751-1.3-7.751-7.9v-986.85c0-3.6-0.5-5.15-3.8-6.1
		c3.1-0.951,3.8-2.701,3.8-5.951V7.4c0-6.25,2.75-7.4,7.751-7.4c-3.25,0.95-4.15,2.95-4.15,6.55V992.35c0,3.7-0.601,5.85-4.051,6.75
		v0.101c3.601,0.95,4.051,3.25,4.051,7.2V1993.5z"/>
</g>
<rect x="345" fill="#3F3B2C" width="177" height="938"/>
</svg>
