<?xml version="1.0" encoding="utf-8"?>
<!-- Generator: Adobe Illustrator 16.0.4, SVG Export Plug-In . SVG Version: 6.00 Build 0)  -->
<!DOCTYPE svg PUBLIC "-//W3C//DTD SVG 1.1//EN" "http://www.w3.org/Graphics/SVG/1.1/DTD/svg11.dtd">
<svg version="1.1" id="Ebene_1" xmlns="http://www.w3.org/2000/svg" xmlns:xlink="http://www.w3.org/1999/xlink" x="0px" y="0px"
	 width="450px" height="800px" viewBox="0 0 450 800" enable-background="new 0 0 450 800" xml:space="preserve">
<g>
	<path fill="#333333" d="M109.082,58.315l0.126,0.067L109.13,58.5c-0.267,1.002-0.449,2.582-0.449,3.931v0.272h-1.218l-0.24-2.143
		c-0.314-0.598-2.381-1.294-3.533-1.294c-2.075,0-4.548,0.866-4.548,5.08c0,5.294,3.225,7.164,5.985,7.164
		c1.003,0,2.264-0.363,3.211-0.919l0.137-0.082l0.473,0.708l-0.74,1.125c-0.284,0.408-2.306,1.176-4.631,1.176
		c-2.003,0-3.878-0.731-5.281-2.057c-1.527-1.444-2.334-3.431-2.334-5.744c0-3.019,1.471-5.17,2.848-6.178
		c0.74-0.546,1.831-1.163,2.779-1.569c1.175-0.509,2.211-0.756,3.168-0.756C106.661,57.215,108.25,57.784,109.082,58.315z
		 M126.521,64.753c0,5.065-3.551,8.437-8.634,8.437h-0.226c-4.084,0-7.05-3.086-7.05-7.564c0-5.107,3.299-8.312,8.407-8.312
		C123.225,57.313,126.521,60.527,126.521,64.753z M123.179,66.339c0-4.377-2.063-7.554-4.904-7.554
		c-3.762,0-4.323,3.519-4.323,5.615c0,7.343,4.328,7.715,5.194,7.715C122.123,72.115,123.179,69.003,123.179,66.339z
		 M137.981,57.382c-0.82,0-2.042,0.365-2.888,1.384l-1.557,1.793v-2.99l-0.413-0.203l-0.046,0.029
		c-1.175,0.509-3.022,1.12-4.909,1.312l-0.07,0.015v1.262h1.223c0.703,0,0.854,0.092,0.98,0.258c0.091,0.146,0.127,0.58,0.127,1.896
		v7.269c0,0.692,0.055,1.45-0.075,1.805c-0.093,0.211-0.431,0.323-0.946,0.354l-1.698,0.107v1.299l0.264-0.004
		c0.318-0.008,0.69-0.021,1.033-0.032c0.889-0.03,1.922-0.065,3.07-0.065c0.988,0,1.876,0.025,2.805,0.052
		c0.555,0.016,1.044,0.033,1.673,0.045l0.087,0.003v-1.3l-1.751-0.105c-0.888-0.039-1.147-0.214-1.205-0.342
		c-0.133-0.369-0.151-1.125-0.151-1.817v-5.557c0-2.025,1.428-3.386,2.719-3.386c1.164,0,1.777,0.743,2.067,1.376l0.066,0.085h0.943
		l0.309-4.112l-0.073-0.049C139.283,57.551,138.571,57.382,137.981,57.382z M154.804,63.452c0,0.45,0,0.904-0.066,1.369
		l-0.017,0.098l-0.123,0.058c-1.809,0.301-3.787,0.445-5.875,0.445h-4.547c0.058,3.884,2.121,6.038,5.677,6.038
		c1.454,0,2.646-0.671,3.8-1.37l0.219-0.153l0.628,0.473l-0.721,1.221c-0.262,0.45-3.046,1.89-5.314,1.89
		c-4.708,0-7.632-2.926-7.632-7.634c0-3.023,0.761-5.027,2.392-6.304c0.539-0.424,1.256-0.958,2.037-1.313
		c1.229-0.562,2.153-0.888,3.236-0.888C152.27,57.382,154.804,59.815,154.804,63.452z M148.527,58.785
		c-2.489,0-3.906,1.875-3.906,4.776v0.269c1.165,0.156,2.651,0.176,3.744,0.176c1.193,0,2.231-0.03,3.306-0.088
		C151.638,61.407,150.879,58.785,148.527,58.785z M172.897,64.753c0,5.065-3.549,8.437-8.632,8.437h-0.227
		c-4.084,0-7.049-3.086-7.049-7.564c0-5.107,3.299-8.312,8.406-8.312C169.603,57.313,172.897,60.527,172.897,64.753z
		 M169.557,66.339c0-4.377-2.062-7.554-4.904-7.554c-3.761,0-4.323,3.519-4.323,5.615c0,7.343,4.327,7.715,5.195,7.715
		C168.5,72.115,169.557,69.003,169.557,66.339z M190.941,71.567c-0.512-0.031-0.888-0.143-0.978-0.342
		c-0.133-0.369-0.243-1.125-0.243-1.817v-6.235c0-3.842-1.765-5.791-5.415-5.791c-1.32,0-2.066,0.207-2.81,0.849l-2.261,1.883V57.57
		l-0.332-0.203l-0.005,0.029c-1.175,0.509-2.888,1.12-4.774,1.312l0.063,0.015v1.262h0.997c0.704,0,0.774,0.092,0.898,0.258
		c0.092,0.146,0.046,0.58,0.046,1.896v7.269c0,0.692,0.137,1.45,0.007,1.805c-0.093,0.211-0.488,0.323-1.003,0.354l-1.723,0.107
		v1.299l0.362-0.004c0.298-0.008,0.704-0.02,1.027-0.031c0.894-0.031,1.954-0.066,3.116-0.066c1.162,0,2.199,0.035,3.092,0.066
		c0.324,0.011,0.554,0.022,0.854,0.031l0.094,0.004v-1.299l-1.521-0.107c-0.514-0.031-0.876-0.143-0.966-0.343
		c-0.134-0.366-0.232-1.124-0.232-1.816v-6.849c0-1.2,2.125-2.869,4.013-2.869c2.222,0,3.755,1.471,3.755,3.935v9.352l0.094-0.007
		c0.197-0.008,0.365-0.019,0.583-0.03c0.605-0.031,1.271-0.066,1.933-0.066c0.637,0,1.271,0.032,1.894,0.062
		c0.255,0.013,0.513,0.025,0.75,0.035l0.183,0.007v-1.301L190.941,71.567z"/>
	<g>
		<path fill="#2FAEDE" d="M59.961,59.022c-2.835,2.834-6.751,4.588-11.076,4.588s-8.241-1.753-11.077-4.588
			c-2.834-2.835-4.588-6.75-4.588-11.076H1.892c0,12.977,5.26,24.725,13.764,33.229c8.504,8.504,20.252,13.764,33.229,13.764
			c12.976,0,24.725-5.26,33.229-13.764L59.961,59.022z"/>
		<path fill="#0094A5" d="M15.655,14.716C7.151,23.22,1.892,34.968,1.892,47.946H33.22c0-4.327,1.752-8.242,4.588-11.077
			L15.655,14.716z"/>
		<path fill="#70BA75" d="M37.808,36.869c2.835-2.835,6.75-4.588,11.077-4.588c4.325,0,8.241,1.753,11.076,4.588
			c2.834,2.834,4.588,6.75,4.588,11.077h31.328c0-12.978-5.259-24.726-13.763-33.23C73.609,6.212,61.861,0.952,48.885,0.952
			c-12.977,0-24.726,5.26-33.229,13.764L37.808,36.869z"/>
	</g>
</g>
<g>
	<path fill="#00A5DB" d="M17.816,217.217c-0.772,0.772-1.839,1.249-3.017,1.249s-2.245-0.477-3.017-1.249
		c-0.771-0.772-1.249-1.839-1.249-3.017H2c0,3.534,1.433,6.734,3.749,9.051c2.316,2.316,5.516,3.749,9.051,3.749
		s6.734-1.433,9.051-3.749L17.816,217.217z"/>
	<path fill="#0094A5" d="M5.749,205.149C3.433,207.466,2,210.665,2,214.2h8.533c0-1.179,0.477-2.245,1.249-3.017L5.749,205.149z"/>
	<path fill="#70BA75" d="M11.782,211.183c0.772-0.772,1.839-1.249,3.017-1.249s2.245,0.477,3.017,1.249
		c0.772,0.772,1.25,1.838,1.25,3.017h8.533c0-3.535-1.433-6.734-3.749-9.051c-2.317-2.316-5.517-3.749-9.051-3.749
		s-6.734,1.433-9.051,3.749L11.782,211.183z"/>
</g>
<path fill="#333333" d="M44.442,215.625l0.071,0.038l-0.044,0.067c-0.151,0.568-0.254,1.464-0.254,2.229v0.155h-0.691l-0.136-1.215
	c-0.178-0.339-1.35-0.734-2.003-0.734c-1.177,0-2.58,0.492-2.58,2.881c0,3.002,1.829,4.063,3.395,4.063
	c0.569,0,1.283-0.206,1.821-0.521l0.078-0.046l0.268,0.401l-0.419,0.638c-0.161,0.231-1.308,0.667-2.627,0.667
	c-1.136,0-2.199-0.415-2.995-1.166c-0.866-0.819-1.324-1.946-1.324-3.258c0-1.712,0.834-2.932,1.615-3.503
	c0.419-0.31,1.039-0.66,1.577-0.891c0.666-0.288,1.254-0.429,1.796-0.429C43.068,215,43.97,215.323,44.442,215.625z M54.331,219.275
	c0,2.872-2.013,4.785-4.896,4.785h-0.128c-2.316,0-3.998-1.75-3.998-4.29c0-2.896,1.871-4.714,4.768-4.714
	C52.462,215.056,54.331,216.879,54.331,219.275z M52.436,220.175c0-2.482-1.169-4.284-2.781-4.284c-2.133,0-2.452,1.995-2.452,3.185
	c0,4.165,2.455,4.375,2.946,4.375C51.837,223.451,52.436,221.686,52.436,220.175z M60.831,215.096c-0.465,0-1.158,0.206-1.638,0.785
	l-0.883,1.017v-1.696l-0.234-0.115l-0.026,0.017c-0.667,0.289-1.714,0.635-2.784,0.744l-0.04,0.009v0.715h0.693
	c0.399,0,0.484,0.052,0.556,0.146c0.051,0.083,0.072,0.328,0.072,1.075v4.123c0,0.393,0.031,0.822-0.042,1.024
	c-0.053,0.119-0.244,0.183-0.537,0.2l-0.963,0.061v0.737l0.15-0.002c0.18-0.005,0.392-0.012,0.585-0.018
	c0.504-0.017,1.09-0.037,1.741-0.037c0.561,0,1.064,0.015,1.591,0.03c0.315,0.009,0.592,0.019,0.949,0.025l0.05,0.002V223.2
	l-0.993-0.06c-0.504-0.022-0.651-0.121-0.684-0.194c-0.076-0.209-0.085-0.638-0.085-1.03v-3.151c0-1.149,0.81-1.92,1.542-1.92
	c0.66,0,1.007,0.421,1.172,0.78l0.038,0.049h0.535l0.175-2.332l-0.042-0.028C61.569,215.191,61.165,215.096,60.831,215.096z
	 M70.372,218.538c0,0.255,0,0.513-0.038,0.776l-0.01,0.056l-0.069,0.033c-1.026,0.171-2.147,0.252-3.332,0.252h-2.579
	c0.033,2.202,1.203,3.424,3.22,3.424c0.825,0,1.501-0.381,2.155-0.777l0.124-0.086l0.356,0.268l-0.409,0.692
	c-0.149,0.255-1.728,1.072-3.014,1.072c-2.67,0-4.328-1.659-4.328-4.33c0-1.714,0.431-2.851,1.356-3.575
	c0.305-0.241,0.712-0.543,1.155-0.745c0.697-0.318,1.221-0.503,1.835-0.503C68.935,215.096,70.372,216.475,70.372,218.538z
	 M66.812,215.891c-1.412,0-2.215,1.063-2.215,2.708v0.153c0.661,0.088,1.504,0.1,2.123,0.1c0.677,0,1.266-0.017,1.875-0.049
	C68.576,217.378,68.146,215.891,66.812,215.891z M80.633,219.275c0,2.872-2.014,4.785-4.896,4.785h-0.128
	c-2.317,0-3.998-1.75-3.998-4.29c0-2.896,1.872-4.714,4.768-4.714C78.765,215.056,80.633,216.879,80.633,219.275z M78.738,220.175
	c0-2.482-1.169-4.284-2.781-4.284c-2.133,0-2.451,1.995-2.451,3.185c0,4.165,2.454,4.375,2.946,4.375
	C78.14,223.451,78.738,221.686,78.738,220.175z M90.867,223.14c-0.291-0.017-0.503-0.081-0.554-0.194
	c-0.076-0.209-0.138-0.638-0.138-1.03v-3.537c0-2.179-1.001-3.283-3.071-3.283c-0.749,0-1.171,0.117-1.594,0.481l-1.282,1.068
	v-1.443l-0.188-0.115l-0.003,0.017c-0.667,0.289-1.637,0.635-2.708,0.744l0.036,0.009v0.715h0.565c0.399,0,0.439,0.052,0.51,0.146
	c0.052,0.083,0.027,0.328,0.027,1.075v4.123c0,0.393,0.077,0.822,0.003,1.024c-0.053,0.119-0.276,0.183-0.569,0.2l-0.977,0.061
	v0.737l0.205-0.002c0.169-0.005,0.399-0.011,0.583-0.018c0.507-0.018,1.108-0.038,1.767-0.038s1.247,0.02,1.754,0.038
	c0.184,0.006,0.314,0.013,0.484,0.018l0.053,0.002V223.2l-0.863-0.061c-0.292-0.017-0.498-0.081-0.548-0.194
	c-0.076-0.208-0.131-0.637-0.131-1.03v-3.884c0-0.681,1.205-1.627,2.276-1.627c1.259,0,2.129,0.834,2.129,2.232v5.303l0.053-0.004
	c0.112-0.005,0.207-0.011,0.331-0.018c0.343-0.018,0.721-0.038,1.096-0.038c0.361,0,0.72,0.018,1.074,0.035
	c0.145,0.007,0.291,0.015,0.425,0.02l0.104,0.004v-0.738L90.867,223.14z"/>
</svg>
