<?xml version="1.0" encoding="utf-8"?>
<!-- Generator: Adobe Illustrator 16.0.4, SVG Export Plug-In . SVG Version: 6.00 Build 0)  -->
<!DOCTYPE svg PUBLIC "-//W3C//DTD SVG 1.1//EN" "http://www.w3.org/Graphics/SVG/1.1/DTD/svg11.dtd">
<svg version="1.1" id="Ebene_1" xmlns="http://www.w3.org/2000/svg" xmlns:xlink="http://www.w3.org/1999/xlink" x="0px" y="0px"
	 width="450px" height="800px" viewBox="0 0 450 800" enable-background="new 0 0 450 800" xml:space="preserve">
<g>
	<path fill="#333333" d="M106.49,48.843l0.13,0.068l-0.081,0.122c-0.275,1.033-0.462,2.663-0.462,4.054v0.28h-1.257l-0.247-2.209
		c-0.324-0.617-2.456-1.334-3.643-1.334c-2.14,0-4.689,0.892-4.689,5.238c0,5.458,3.325,7.387,6.17,7.387
		c1.034,0,2.335-0.375,3.311-0.949l0.142-0.083l0.487,0.729l-0.763,1.16c-0.293,0.421-2.377,1.213-4.775,1.213
		c-2.065,0-3.999-0.754-5.445-2.122c-1.574-1.488-2.407-3.538-2.407-5.923c0-3.112,1.518-5.331,2.937-6.37
		c0.762-0.563,1.888-1.2,2.865-1.617c1.212-0.526,2.28-0.781,3.267-0.781C103.993,47.708,105.632,48.295,106.49,48.843z
		 M124.471,55.48c0,5.223-3.661,8.7-8.902,8.7h-0.233c-4.211,0-7.269-3.182-7.269-7.8c0-5.265,3.401-8.57,8.668-8.57
		C121.073,47.809,124.471,51.123,124.471,55.48z M121.026,57.115c0-4.513-2.127-7.788-5.057-7.788c-3.879,0-4.458,3.629-4.458,5.79
		c0,7.571,4.462,7.955,5.355,7.955C119.936,63.071,121.026,59.862,121.026,57.115z M136.288,47.88c-0.846,0-2.105,0.376-2.979,1.428
		l-1.605,1.849v-3.083l-0.426-0.209l-0.047,0.03c-1.211,0.524-3.116,1.155-5.062,1.352l-0.071,0.017v1.301h1.26
		c0.725,0,0.88,0.095,1.01,0.266c0.095,0.151,0.132,0.598,0.132,1.956v7.495c0,0.714,0.056,1.495-0.078,1.861
		c-0.097,0.217-0.445,0.333-0.976,0.366l-1.751,0.109v1.34l0.273-0.004c0.327-0.009,0.711-0.022,1.064-0.033
		c0.917-0.031,1.983-0.068,3.166-0.068c1.019,0,1.934,0.026,2.892,0.054c0.573,0.017,1.077,0.034,1.726,0.047l0.09,0.003v-1.341
		l-1.806-0.107c-0.916-0.041-1.183-0.221-1.243-0.353c-0.137-0.381-0.156-1.16-0.156-1.874V54.55c0-2.088,1.472-3.492,2.803-3.492
		c1.2,0,1.833,0.767,2.132,1.419l0.068,0.087h0.972l0.319-4.239l-0.075-0.051C137.63,48.055,136.896,47.88,136.288,47.88z
		 M153.634,54.139c0,0.464,0,0.932-0.068,1.412l-0.017,0.101l-0.127,0.061c-1.866,0.31-3.905,0.458-6.058,0.458h-4.689
		c0.061,4.006,2.188,6.226,5.854,6.226c1.5,0,2.728-0.692,3.918-1.413l0.226-0.157l0.647,0.487l-0.743,1.259
		c-0.27,0.464-3.141,1.949-5.479,1.949c-4.854,0-7.869-3.017-7.869-7.871c0-3.118,0.785-5.184,2.467-6.501
		c0.556-0.437,1.295-0.988,2.101-1.353c1.267-0.58,2.219-0.917,3.336-0.917C151.021,47.88,153.634,50.389,153.634,54.139z
		 M147.162,49.327c-2.567,0-4.028,1.933-4.028,4.925v0.277c1.201,0.161,2.734,0.181,3.86,0.181c1.23,0,2.301-0.03,3.409-0.091
		C150.37,52.03,149.586,49.327,147.162,49.327z M172.29,55.48c0,5.223-3.659,8.7-8.9,8.7h-0.235c-4.211,0-7.268-3.182-7.268-7.8
		c0-5.265,3.401-8.57,8.668-8.57C168.893,47.809,172.29,51.123,172.29,55.48z M168.846,57.115c0-4.513-2.127-7.788-5.057-7.788
		c-3.877,0-4.458,3.629-4.458,5.79c0,7.571,4.462,7.955,5.357,7.955C167.755,63.071,168.846,59.862,168.846,57.115z M190.895,62.507
		c-0.528-0.032-0.916-0.148-1.009-0.353c-0.137-0.381-0.25-1.16-0.25-1.874v-6.429c0-3.961-1.821-5.971-5.583-5.971
		c-1.361,0-2.131,0.213-2.898,0.876l-2.331,1.941v-2.623l-0.342-0.209l-0.005,0.03c-1.211,0.525-2.979,1.155-4.923,1.353
		l0.065,0.016v1.301h1.028c0.726,0,0.797,0.095,0.925,0.266c0.095,0.151,0.047,0.598,0.047,1.956v7.495
		c0,0.714,0.142,1.495,0.007,1.861c-0.096,0.217-0.502,0.333-1.034,0.366l-1.776,0.109v1.34l0.374-0.004
		c0.307-0.009,0.726-0.021,1.058-0.032c0.922-0.032,2.015-0.068,3.213-0.068s2.268,0.036,3.188,0.068
		c0.334,0.011,0.572,0.022,0.881,0.032l0.097,0.004v-1.34l-1.568-0.109c-0.53-0.032-0.903-0.148-0.997-0.354
		c-0.138-0.378-0.239-1.159-0.239-1.873v-7.062c0-1.238,2.191-2.958,4.138-2.958c2.291,0,3.872,1.517,3.872,4.057v9.643l0.098-0.007
		c0.202-0.009,0.375-0.02,0.601-0.031c0.623-0.032,1.31-0.068,1.993-0.068c0.656,0,1.31,0.033,1.953,0.064
		c0.263,0.013,0.529,0.025,0.773,0.036l0.189,0.007V62.62L190.895,62.507z"/>
	<g>
		<path fill="#2FAEDE" d="M48.839,47.901c-2.292,2.292-5.458,3.709-8.955,3.709c-3.496,0-6.662-1.417-8.955-3.709
			c-2.292-2.292-3.709-5.458-3.709-8.955H1.892c0,10.491,4.252,19.989,11.127,26.865c6.875,6.876,16.374,11.128,26.865,11.128
			s19.99-4.252,26.865-11.128L48.839,47.901z"/>
		<path fill="#0094A5" d="M13.019,12.079C6.144,18.956,1.892,28.454,1.892,38.946H27.22c0-3.499,1.417-6.664,3.709-8.956
			L13.019,12.079z"/>
		<path fill="#70BA75" d="M30.93,29.99c2.292-2.292,5.457-3.709,8.955-3.709c3.497,0,6.663,1.417,8.955,3.709
			c2.292,2.291,3.709,5.457,3.709,8.956h25.328c0-10.492-4.251-19.99-11.127-26.866C59.874,5.204,50.376,0.952,39.885,0.952
			S19.895,5.204,13.02,12.079L30.93,29.99z"/>
	</g>
</g>
<g>
	<path fill="#00A5DB" d="M17.816,217.217c-0.772,0.772-1.839,1.249-3.018,1.249c-1.178,0-2.244-0.477-3.017-1.249
		c-0.771-0.771-1.249-1.839-1.249-3.017H2c0,3.534,1.434,6.734,3.749,9.051C8.065,225.567,11.265,227,14.8,227
		c3.535,0,6.734-1.433,9.052-3.749L17.816,217.217z"/>
	<path fill="#0094A5" d="M5.749,205.149C3.433,207.466,2,210.665,2,214.2h8.533c0-1.179,0.477-2.245,1.249-3.017L5.749,205.149z"/>
	<path fill="#70BA75" d="M11.782,211.183c0.772-0.772,1.839-1.249,3.017-1.249c1.179,0,2.245,0.477,3.018,1.249
		c0.771,0.771,1.25,1.838,1.25,3.017h8.533c0-3.535-1.434-6.734-3.749-9.051c-2.317-2.316-5.518-3.749-9.052-3.749
		c-3.533,0-6.733,1.433-9.051,3.749L11.782,211.183z"/>
</g>
<path fill="#333333" d="M44.442,215.625l0.071,0.038l-0.044,0.067c-0.151,0.567-0.255,1.464-0.255,2.229v0.155h-0.69l-0.136-1.215
	c-0.179-0.339-1.351-0.734-2.004-0.734c-1.177,0-2.579,0.492-2.579,2.881c0,3.002,1.828,4.063,3.395,4.063
	c0.569,0,1.283-0.206,1.821-0.521l0.078-0.046l0.268,0.401l-0.419,0.638c-0.161,0.231-1.308,0.667-2.627,0.667
	c-1.136,0-2.199-0.415-2.995-1.166c-0.866-0.818-1.324-1.945-1.324-3.258c0-1.712,0.834-2.932,1.615-3.503
	c0.419-0.31,1.039-0.66,1.577-0.891c0.666-0.288,1.254-0.43,1.796-0.43C43.068,215,43.97,215.323,44.442,215.625z M54.331,219.275
	c0,2.872-2.013,4.785-4.896,4.785h-0.128c-2.316,0-3.998-1.75-3.998-4.29c0-2.896,1.871-4.714,4.768-4.714
	C52.462,215.056,54.331,216.879,54.331,219.275z M52.436,220.175c0-2.481-1.169-4.283-2.781-4.283c-2.133,0-2.452,1.995-2.452,3.185
	c0,4.165,2.455,4.375,2.946,4.375C51.837,223.451,52.436,221.686,52.436,220.175z M60.831,215.096c-0.465,0-1.158,0.206-1.638,0.784
	l-0.883,1.018v-1.696l-0.234-0.115l-0.026,0.018c-0.667,0.289-1.714,0.635-2.783,0.744l-0.04,0.009v0.715h0.692
	c0.399,0,0.484,0.052,0.557,0.146c0.051,0.083,0.071,0.328,0.071,1.075v4.123c0,0.394,0.031,0.822-0.042,1.024
	c-0.053,0.119-0.243,0.183-0.537,0.2l-0.963,0.061v0.737l0.15-0.002c0.18-0.005,0.392-0.013,0.585-0.019
	c0.504-0.017,1.09-0.037,1.741-0.037c0.561,0,1.063,0.016,1.591,0.03c0.315,0.009,0.592,0.02,0.949,0.025l0.05,0.002V223.2
	l-0.993-0.06c-0.504-0.022-0.651-0.121-0.684-0.194c-0.076-0.209-0.085-0.638-0.085-1.03v-3.15c0-1.149,0.81-1.92,1.542-1.92
	c0.66,0,1.007,0.421,1.172,0.779l0.038,0.049h0.535l0.175-2.332l-0.042-0.027C61.569,215.191,61.165,215.096,60.831,215.096z
	 M70.372,218.538c0,0.255,0,0.513-0.038,0.776l-0.01,0.056l-0.069,0.033c-1.025,0.171-2.146,0.252-3.332,0.252h-2.578
	c0.032,2.202,1.202,3.424,3.22,3.424c0.825,0,1.501-0.381,2.155-0.776l0.123-0.087l0.356,0.269l-0.409,0.692
	c-0.148,0.255-1.728,1.071-3.014,1.071c-2.67,0-4.328-1.659-4.328-4.33c0-1.714,0.431-2.851,1.356-3.574
	c0.305-0.241,0.712-0.544,1.154-0.745c0.697-0.318,1.222-0.503,1.835-0.503C68.935,215.096,70.372,216.475,70.372,218.538z
	 M66.812,215.891c-1.412,0-2.215,1.062-2.215,2.708v0.152c0.66,0.088,1.504,0.101,2.123,0.101c0.677,0,1.266-0.018,1.875-0.049
	C68.576,217.378,68.146,215.891,66.812,215.891z M80.633,219.275c0,2.872-2.014,4.785-4.896,4.785h-0.128
	c-2.317,0-3.998-1.75-3.998-4.29c0-2.896,1.872-4.714,4.768-4.714C78.765,215.056,80.633,216.879,80.633,219.275z M78.738,220.175
	c0-2.481-1.169-4.283-2.781-4.283c-2.133,0-2.451,1.995-2.451,3.185c0,4.165,2.454,4.375,2.946,4.375
	C78.14,223.451,78.738,221.686,78.738,220.175z M90.867,223.14c-0.291-0.018-0.503-0.081-0.554-0.194
	c-0.076-0.209-0.139-0.638-0.139-1.03v-3.537c0-2.179-1.001-3.282-3.07-3.282c-0.749,0-1.171,0.116-1.595,0.48l-1.281,1.068v-1.443
	l-0.188-0.115l-0.003,0.018c-0.667,0.289-1.637,0.635-2.708,0.744l0.036,0.009v0.715h0.565c0.398,0,0.438,0.052,0.51,0.146
	c0.052,0.083,0.026,0.328,0.026,1.075v4.123c0,0.394,0.077,0.822,0.004,1.024c-0.054,0.119-0.276,0.183-0.569,0.2l-0.978,0.061
	v0.737l0.205-0.002c0.169-0.005,0.399-0.012,0.583-0.019c0.508-0.018,1.108-0.038,1.768-0.038s1.247,0.021,1.754,0.038
	c0.184,0.006,0.313,0.014,0.483,0.019l0.054,0.002V223.2l-0.863-0.061c-0.292-0.018-0.498-0.081-0.548-0.194
	c-0.076-0.208-0.131-0.637-0.131-1.03v-3.884c0-0.681,1.205-1.627,2.275-1.627c1.26,0,2.129,0.834,2.129,2.232v5.303l0.054-0.004
	c0.111-0.005,0.207-0.012,0.331-0.019c0.343-0.018,0.721-0.038,1.096-0.038c0.361,0,0.72,0.019,1.074,0.035
	c0.145,0.007,0.291,0.016,0.425,0.021l0.104,0.004V223.2L90.867,223.14z"/>
</svg>
