<?xml version="1.0" encoding="utf-8"?>
<!-- Generator: Adobe Illustrator 16.0.4, SVG Export Plug-In . SVG Version: 6.00 Build 0)  -->
<!DOCTYPE svg PUBLIC "-//W3C//DTD SVG 1.1//EN" "http://www.w3.org/Graphics/SVG/1.1/DTD/svg11.dtd">
<svg version="1.1" id="Ebene_1" xmlns="http://www.w3.org/2000/svg" xmlns:xlink="http://www.w3.org/1999/xlink" x="0px" y="0px"
	 width="250px" height="1400px" viewBox="0 0 250 1400" enable-background="new 0 0 250 1400" xml:space="preserve">
<g transform="translate(100 50)" opacity="0.5">
	<g>
		<path fill="#FFFFFF" d="M-84,1215l-10,10h10l10-10l-10-10h-10L-84,1215z"/>
	</g>
</g>
<g transform="translate(150 50)">
	<path fill="#514B38" d="M-141-34l4-4h-8L-141-34z"/>
</g>
<g transform="translate(150 50)">
	<path fill="#43AAA4" d="M-90.984-34l4-4h-8L-90.984-34z"/>
</g>
<g transform="translate(150 50)">
	<path fill="#5FBA83" d="M-40.984-34l4-4h-8L-40.984-34z"/>
</g>
<g transform="translate(150 50)">
	<path fill="#FFFFFF" d="M9.016-34l4-4h-8L9.016-34z"/>
</g>
<g transform="translate(100 50)">
	<path fill="#514B38" d="M-90.984,12l-5,5h5l5-5l-5-5h-5L-90.984,12z"/>
</g>
<g transform="translate(100 50)">
	<path fill="#FFFFFF" d="M59.016,12l-5,5h5l5-5l-5-5h-5L59.016,12z"/>
</g>
<g transform="translate(50 0)">
	<path fill="#514B38" d="M-47.984,112.701c0-0.566,0.039-1.089,0.117-1.567s0.239-0.972,0.483-1.483s0.569-0.944,0.975-1.3
		c0.406-0.356,0.964-0.648,1.675-0.875c0.711-0.228,1.794-0.475,2.75-0.476v-4l5,5.578l-5,5.422v-4
		c-1.511-0.012-2.763,0.289-3.641,0.672s-1.736,1.271-2.358,2.027L-47.984,112.701z"/>
</g>
<g transform="translate(50 0)">
	<path fill="#FFFFFF" d="M102.016,112.701c0-0.566,0.039-1.089,0.117-1.567s0.238-0.972,0.482-1.483s0.569-0.944,0.976-1.3
		c0.405-0.356,0.964-0.648,1.675-0.875c0.711-0.228,1.794-0.475,2.75-0.476v-4l5,5.578l-5,5.422v-4
		c-1.512-0.012-2.764,0.289-3.641,0.672s-1.736,1.271-2.358,2.027L102.016,112.701z"/>
</g>
<g transform="translate(50 50)">
	<path fill="#514B38" d="M-46.984,110h5v3l5-4.5l-5-4.5v3h-5V110z"/>
</g>
<g transform="translate(0 50)">
	<path fill="#514B38" d="M2.016,154.983l1.7,1.45c-0.288,0.478-0.536,0.964-0.742,1.458c-0.206,0.493-0.361,1.017-0.467,1.567
		s-0.128,1.056-0.067,1.517c0.061,0.46,0.262,0.868,0.601,1.225s0.809,0.614,1.407,0.775c0.6,0.161,1.422,0.191,2.468,0.092
		c1.045-0.099,2.268-0.349,3.667-0.75c-0.611,0.067-1.195,0.092-1.75,0.075c-0.556-0.017-1.072-0.053-1.551-0.108
		c-0.478-0.056-0.875-0.175-1.191-0.358c-0.316-0.183-0.545-0.414-0.684-0.691s-0.148-0.65-0.032-1.117s0.375-1.006,0.774-1.617
		l1.684,1.531L7.816,154L2.016,154.983z"/>
</g>
<g transform="translate(0 0)">
	<path fill="#514B38" d="M10.576,260.184h0.033c1.289,0.022,2.392,0.491,3.308,1.408c0.917,0.917,1.375,2.025,1.375,3.325v0.017
		c-0.011,1.3-0.478,2.408-1.4,3.325c-0.922,0.917-2.028,1.375-3.317,1.375h-0.033v-1.433h0.033c0.9,0,1.669-0.317,2.308-0.95
		s0.963-1.406,0.975-2.317v-0.017c0-0.911-0.316-1.687-0.95-2.325s-1.406-0.963-2.317-0.975h-0.017c-0.956,0-1.755,0.35-2.4,1.05
		l1.867,1.867H5.308v-4.767l1.85,1.883C8.102,260.672,9.241,260.183,10.576,260.184L10.576,260.184z"/>
</g>
<g transform="translate(100 0)">
	<path fill="#514B38" d="M-95,410h6v-2h-6V410z"/>
</g>
<g transform="translate(150 0)">
	<path fill="#514B38" d="M-141.217,458.784l2.233,2.217l-1.517,1.583l-2.267-2.25l-2.283,2.25l-1.517-1.583l2.233-2.217
		l-2.233-2.217c1.034-1,1.55-1.523,1.55-1.567l2.25,2.233l2.233-2.233c0,0.044,0.517,0.567,1.55,1.567L-141.217,458.784z"/>
</g>
<g transform="translate(200 0)">
	<path fill="#514B38" d="M-193,309h-3v2h3v3h2v-3h3v-2h-3v-3h-2V309z"/>
</g>
<g transform="translate(300 50)">
	<path fill="#514B38" d="M-293,308h-2v2h2v2h2v-2h2v-2h-2v-2h-2V308z"/>
</g>
<g transform="translate(100 0)">
	<path fill="#43AAA4" d="M-45,410h6v-2h-6V410z"/>
</g>
<g transform="translate(150 0)">
	<path fill="#43AAA4" d="M-91.217,458.784l2.233,2.217l-1.517,1.583l-2.267-2.25l-2.283,2.25l-1.517-1.583l2.233-2.217l-2.233-2.217
		c1.034-1,1.55-1.523,1.55-1.567l2.25,2.233l2.233-2.233c0,0.044,0.517,0.567,1.55,1.567L-91.217,458.784z"/>
</g>
<g transform="translate(200 0)">
	<path fill="#43AAA4" d="M-143,309h-3v2h3v3h2v-3h3v-2h-3v-3h-2V309z"/>
</g>
<g transform="translate(300 50)">
	<path fill="#43AAA4" d="M-243,308h-2v2h2v2h2v-2h2v-2h-2v-2h-2V308z"/>
</g>
<g transform="translate(100 0)">
	<path fill="#5FBA83" d="M6,410h6v-2H6V410z"/>
</g>
<g transform="translate(150 0)">
	<path fill="#5FBA83" d="M-40.217,458.784l2.232,2.217l-1.517,1.583l-2.267-2.25l-2.283,2.25l-1.518-1.583l2.233-2.217l-2.233-2.217
		c1.033-1,1.551-1.523,1.551-1.567l2.25,2.233l2.232-2.233c0,0.044,0.517,0.567,1.55,1.567L-40.217,458.784z"/>
</g>
<g transform="translate(200 0)">
	<path fill="#5FBA83" d="M-92,309h-3v2h3v3h2v-3h3v-2h-3v-3h-2V309z"/>
</g>
<g transform="translate(300 50)">
	<path fill="#5FBA83" d="M-192,308h-2v2h2v2h2v-2h2v-2h-2v-2h-2V308z"/>
</g>
<g transform="translate(100 0)">
	<path fill="#FFFFFF" d="M56,410h6v-2h-6V410z"/>
</g>
<g transform="translate(150 0)">
	<path fill="#FFFFFF" d="M9.367,459.2l2.232,2.217L10.083,463l-2.267-2.25L5.533,463l-1.518-1.583l2.233-2.217l-2.233-2.217
		c1.033-1,1.551-1.523,1.551-1.567l2.25,2.233l2.232-2.233c0,0.044,0.517,0.567,1.55,1.567L9.367,459.2z"/>
</g>
<g transform="translate(200 0)">
	<path fill="#FFFFFF" d="M-42,309h-3v2h3v3h2v-3h3v-2h-3v-3h-2V309z"/>
</g>
<g transform="translate(300 50)">
	<path fill="#FFFFFF" d="M-142,308h-2v2h2v2h2v-2h2v-2h-2v-2h-2V308z"/>
</g>
<g transform="translate(350 0)">
	<path fill="#514B38" d="M-337.918,505.601l0.218,0.482c-1.056,0.979-2.022,2.101-2.9,3.367s-1.483,2.322-1.817,3.167l-3.417-3.467
		l0.884-0.7l1.967,1.55C-341.54,508.255-339.851,506.789-337.918,505.601z"/>
</g>
<g transform="translate(350 0)">
	<path fill="#43AAA4" d="M-288.202,505l0.218,0.482c-1.056,0.979-2.022,2.101-2.9,3.367s-1.483,2.322-1.817,3.167l-3.417-3.467
		l0.884-0.7l1.967,1.55C-291.824,507.654-290.135,506.188-288.202,505z"/>
</g>
<g transform="translate(350 0)">
	<path fill="#5FBA83" d="M-238.067,504.983l0.218,0.482c-1.056,0.979-2.022,2.101-2.9,3.367s-1.483,2.322-1.817,3.167l-3.417-3.467
		l0.884-0.7l1.967,1.55C-241.689,507.638-240,506.172-238.067,504.983z"/>
</g>
<g transform="translate(350 0)">
	<path fill="#FFFFFF" d="M-188.067,504.983l0.218,0.482c-1.056,0.979-2.022,2.101-2.9,3.367s-1.483,2.322-1.817,3.167l-3.417-3.467
		l0.884-0.7l1.967,1.55C-191.689,507.638-190,506.172-188.067,504.983z"/>
</g>
<g transform="translate(0 0)">
	<path fill="#FFFFFF" d="M160.283,260.55h0.033c1.289,0.022,2.392,0.491,3.309,1.408c0.916,0.917,1.375,2.025,1.375,3.325v0.017
		c-0.012,1.3-0.479,2.408-1.4,3.325c-0.922,0.917-2.027,1.375-3.316,1.375h-0.033v-1.433h0.033c0.899,0,1.669-0.317,2.308-0.95
		s0.964-1.406,0.975-2.317v-0.017c0-0.911-0.316-1.687-0.95-2.325c-0.633-0.639-1.405-0.963-2.316-0.975h-0.018
		c-0.955,0-1.755,0.35-2.399,1.05l1.866,1.867h-4.732v-4.767l1.85,1.883C157.811,261.038,158.949,260.549,160.283,260.55
		L160.283,260.55z"/>
</g>
<g transform="translate(400 0)">
	<path fill="#514B38" d="M-391.984,553c1.934,0,3.586,0.686,4.958,2.058s2.058,3.024,2.058,4.958s-0.686,3.584-2.058,4.95
		s-3.024,2.05-4.958,2.05s-3.583-0.684-4.95-2.05c-1.366-1.366-2.05-3.017-2.05-4.95s0.684-3.586,2.05-4.958
		C-395.567,553.686-393.918,553-391.984,553z M-387.367,561.967c0.267-0.611,0.399-1.262,0.399-1.95s-0.133-1.339-0.399-1.95
		c-0.245-0.578-0.601-1.111-1.067-1.6c-0.488-0.467-1.021-0.822-1.6-1.066c-0.611-0.268-1.262-0.4-1.95-0.4s-1.339,0.133-1.95,0.4
		c-0.288,0.121-0.561,0.266-0.816,0.433l6.949,6.95C-387.635,562.527-387.49,562.255-387.367,561.967L-387.367,561.967z
		 M-391.984,565.017c0.667,0,1.316-0.128,1.95-0.383c0.244-0.101,0.517-0.244,0.816-0.433l-6.949-6.95
		c-0.189,0.3-0.333,0.572-0.434,0.817c-0.255,0.633-0.383,1.283-0.383,1.949c0,0.667,0.128,1.316,0.383,1.95
		c0.256,0.601,0.616,1.128,1.083,1.583c0.455,0.467,0.983,0.828,1.583,1.083C-393.301,564.889-392.651,565.017-391.984,565.017z"/>
</g>
<g transform="translate(448 0)">
	<path fill="#514B38" d="M-445,604v2h11v-2H-445z M-441,607v2h7v-2H-441z M-441,610v2h7v-2H-441z"/>
</g>
<g transform="translate(448 0)">
	<path fill="#43AAA4" d="M-395,604v2h11v-2H-395z M-391,607v2h7v-2H-391z M-391,610v2h7v-2H-391z"/>
</g>
<g transform="translate(448 0)">
	<path fill="#5FBA83" d="M-345,604v2h11v-2H-345z M-341,607v2h7v-2H-341z M-341,610v2h7v-2H-341z"/>
</g>
<g transform="translate(679 0)">
	<path fill="#514B38" d="M-667.552,660.299l-0.383,0.951l0.7,1.399l0.083,0.183l-0.967,0.967l-1.601-0.767l-0.95,0.4l-0.482,1.467
		l-0.067,0.2h-1.383l-0.583-1.667l-0.95-0.384l-1.399,0.701l-0.15,0.082l-1-0.967l0.767-1.617l-0.399-0.933l-1.467-0.5l-0.2-0.05
		v-1.383l1.667-0.601l0.383-0.933l-0.7-1.4l-0.083-0.183l0.967-0.968l1.617,0.75l0.934-0.383l0.5-1.482l0.05-0.184h1.383l0.6,1.668
		l0.95,0.383l1.383-0.7l0.184-0.083l0.967,0.967l-0.75,1.6l0.383,0.95l1.483,0.483l0.183,0.066v1.383L-667.552,660.299z
		 M-671.935,660.982c0.533,0,0.989-0.189,1.367-0.566c0.378-0.379,0.566-0.834,0.566-1.367s-0.188-0.986-0.566-1.358
		s-0.834-0.558-1.367-0.558s-0.986,0.186-1.358,0.558s-0.558,0.825-0.558,1.358s0.186,0.988,0.558,1.367
		C-672.921,660.793-672.468,660.982-671.935,660.982z"/>
</g>
<g transform="translate(679 0)">
	<path fill="#43AAA4" d="M-617.552,660.299l-0.383,0.951l0.7,1.399l0.083,0.183l-0.967,0.967l-1.601-0.767l-0.95,0.4l-0.482,1.467
		l-0.067,0.2h-1.383l-0.583-1.667l-0.95-0.384l-1.399,0.701l-0.15,0.082l-1-0.967l0.767-1.617l-0.399-0.933l-1.467-0.5l-0.2-0.05
		v-1.383l1.667-0.601l0.383-0.933l-0.7-1.4l-0.083-0.183l0.967-0.968l1.617,0.75l0.934-0.383l0.5-1.482l0.05-0.184h1.383l0.6,1.668
		l0.95,0.383l1.383-0.7l0.184-0.083l0.967,0.967l-0.75,1.6l0.383,0.95l1.483,0.483l0.183,0.066v1.383L-617.552,660.299z
		 M-621.935,660.982c0.533,0,0.989-0.189,1.367-0.566c0.378-0.379,0.566-0.834,0.566-1.367s-0.188-0.986-0.566-1.358
		s-0.834-0.558-1.367-0.558s-0.986,0.186-1.358,0.558s-0.558,0.825-0.558,1.358s0.186,0.988,0.558,1.367
		C-622.921,660.793-622.468,660.982-621.935,660.982z"/>
</g>
<g transform="translate(679 0)">
	<path fill="#5FBA83" d="M-567.65,660.299l-0.383,0.951l0.7,1.399l0.083,0.183l-0.967,0.967l-1.601-0.767l-0.95,0.4l-0.482,1.467
		l-0.067,0.2h-1.383l-0.583-1.667l-0.95-0.384l-1.399,0.701l-0.15,0.082l-1-0.967l0.767-1.617l-0.399-0.933l-1.467-0.5l-0.2-0.05
		v-1.383l1.667-0.601l0.383-0.933l-0.7-1.4l-0.083-0.183l0.967-0.968l1.617,0.75l0.934-0.383l0.5-1.482l0.05-0.184h1.383l0.6,1.668
		l0.95,0.383l1.383-0.7l0.184-0.083l0.967,0.967l-0.75,1.6l0.383,0.95l1.483,0.483l0.183,0.066v1.383L-567.65,660.299z
		 M-572.033,660.982c0.533,0,0.989-0.189,1.367-0.566c0.378-0.379,0.566-0.834,0.566-1.367s-0.188-0.986-0.566-1.358
		s-0.834-0.558-1.367-0.558s-0.986,0.186-1.358,0.558s-0.558,0.825-0.558,1.358s0.186,0.988,0.558,1.367
		C-573.02,660.793-572.566,660.982-572.033,660.982z"/>
</g>
<g transform="translate(583 0)">
	<path fill="#514B38" d="M-568.984,705.717l-1.567,1.566l-2.717-2.717l1.567-1.566L-568.984,705.717z M-571.334,708.066
		l-5.601,5.584l-0.017,0.032v-0.017l-4.033,1.35l1.333-4.05h-0.017l5.616-5.617L-571.334,708.066z M-576.135,711.334l-1.017-0.15
		l-0.167-1.033l-1.083,1.084l-0.517,1.699l1.699-0.517L-576.135,711.334z"/>
</g>
<g transform="translate(583 0)">
	<path fill="#43AAA4" d="M-518.984,705.701l-1.567,1.566l-2.717-2.717l1.567-1.566L-518.984,705.701z M-521.334,708.051
		l-5.601,5.584l-0.017,0.032v-0.017l-4.033,1.35l1.333-4.05h-0.017l5.616-5.617L-521.334,708.051z M-526.135,711.318l-1.017-0.15
		l-0.167-1.033l-1.083,1.084l-0.517,1.699l1.699-0.517L-526.135,711.318z"/>
</g>
<g transform="translate(583 0)">
	<path fill="#5FBA83" d="M-468.984,705.717l-1.567,1.566l-2.717-2.717l1.567-1.566L-468.984,705.717z M-471.334,708.066
		l-5.601,5.584l-0.017,0.032v-0.017l-4.033,1.35l1.333-4.05h-0.017l5.616-5.617L-471.334,708.066z M-476.135,711.334l-1.017-0.15
		l-0.167-1.033l-1.083,1.084l-0.517,1.699l1.699-0.517L-476.135,711.334z"/>
</g>
<g transform="translate(583 0)">
	<path fill="#FFFFFF" d="M-418.984,705.701l-1.567,1.566l-2.717-2.717l1.567-1.566L-418.984,705.701z M-421.334,708.051
		l-5.601,5.584l-0.017,0.032v-0.017l-4.033,1.35l1.333-4.05h-0.017l5.616-5.617L-421.334,708.051z M-426.135,711.318l-1.017-0.15
		l-0.167-1.033l-1.083,1.084l-0.517,1.699l1.699-0.517L-426.135,711.318z"/>
</g>
<g transform="translate(250 50)">
	<path fill="#514B38" d="M-240,705h1c0.078,0.034,0.172,0.083,0.283,0.15c0.11,0.066,0.258,0.188,0.442,0.366
		c0.184,0.179,0.275,0.34,0.275,0.483v1h-10v-1c0-0.3,0.083-0.533,0.25-0.7c0.167-0.166,0.333-0.256,0.5-0.267L-247,705h1v-1
		c0-0.278,0.103-0.514,0.308-0.708c0.205-0.193,0.436-0.291,0.692-0.292h4c0.278,0,0.514,0.095,0.708,0.283S-240,703.711-240,704
		V705z M-245,705h4c0-0.278-0.1-0.514-0.3-0.708c-0.2-0.193-0.434-0.291-0.7-0.292h-2c-0.267,0-0.5,0.101-0.7,0.3
		C-244.9,704.5-245,704.733-245,705z M-241,708h2v6c0,0.3-0.083,0.534-0.25,0.7s-0.333,0.256-0.5,0.268L-240,715h-6
		c-0.078,0-0.172-0.009-0.283-0.024c-0.11-0.018-0.258-0.109-0.442-0.275S-247,714.3-247,714v-6h2v5h1v-5h2v5h1V708z"/>
</g>
<g transform="translate(250 50)">
	<path fill="#43AAA4" d="M-190,705h1c0.078,0.034,0.172,0.083,0.283,0.15c0.11,0.066,0.258,0.188,0.442,0.366
		c0.184,0.179,0.275,0.34,0.275,0.483v1h-10v-1c0-0.3,0.083-0.533,0.25-0.7c0.167-0.166,0.333-0.256,0.5-0.267L-197,705h1v-1
		c0-0.278,0.103-0.514,0.308-0.708c0.205-0.193,0.436-0.291,0.692-0.292h4c0.278,0,0.514,0.095,0.708,0.283S-190,703.711-190,704
		V705z M-195,705h4c0-0.278-0.1-0.514-0.3-0.708c-0.2-0.193-0.434-0.291-0.7-0.292h-2c-0.267,0-0.5,0.101-0.7,0.3
		C-194.9,704.5-195,704.733-195,705z M-191,708h2v6c0,0.3-0.083,0.534-0.25,0.7s-0.333,0.256-0.5,0.268L-190,715h-6
		c-0.078,0-0.172-0.009-0.283-0.024c-0.11-0.018-0.258-0.109-0.442-0.275S-197,714.3-197,714v-6h2v5h1v-5h2v5h1V708z"/>
</g>
<g transform="translate(250 50)">
	<path fill="#5FBA83" d="M-140,705h1c0.078,0.034,0.172,0.083,0.283,0.15c0.11,0.066,0.258,0.188,0.441,0.366
		c0.185,0.179,0.275,0.34,0.275,0.483v1h-10v-1c0-0.3,0.084-0.533,0.25-0.7c0.166-0.166,0.334-0.256,0.5-0.267L-147,705h1v-1
		c0-0.278,0.103-0.514,0.309-0.708c0.205-0.193,0.436-0.291,0.691-0.292h4c0.277,0,0.514,0.095,0.708,0.283S-140,703.711-140,704
		V705z M-145,705h4c0-0.278-0.1-0.514-0.3-0.708c-0.2-0.193-0.434-0.291-0.7-0.292h-2c-0.267,0-0.5,0.101-0.7,0.3
		C-144.9,704.5-145,704.733-145,705z M-141,708h2v6c0,0.3-0.084,0.534-0.25,0.7s-0.334,0.256-0.5,0.268L-140,715h-6
		c-0.078,0-0.172-0.009-0.283-0.024c-0.11-0.018-0.258-0.109-0.441-0.275c-0.185-0.166-0.275-0.4-0.275-0.7v-6h2v5h1v-5h2v5h1V708z"
		/>
</g>
<g transform="translate(629 0)">
	<path fill="#514B38" d="M-624.984,805h2v7h2l-3,4l-3-4h2V805"/>
</g>
<g transform="translate(629 0)" opacity="0.5">
	<path fill="#514B38" d="M-624.984,807v-2h7v-2l4,3l-4,3v-2H-624.984"/>
</g>
<g transform="translate(629 0)">
	<path fill="#43AAA4" d="M-574.984,805h2v7h2l-3,4l-3-4h2V805"/>
</g>
<g transform="translate(629 0)" opacity="0.5">
	<path fill="#43AAA4" d="M-574.984,807v-2h7v-2l4,3l-4,3v-2H-574.984"/>
</g>
<g transform="translate(724 0)">
	<path fill="#514B38" d="M-707.984,860.799l-1.968,0.684c-0.188,1.166-0.711,2.178-1.566,3.033
		c-0.856,0.855-1.879,1.377-3.067,1.566l-0.667,1.918h-0.45l-0.649-1.918c-1.167-0.188-2.189-0.711-3.067-1.566
		c-0.822-0.822-1.339-1.833-1.55-3.033l-2-0.684v-0.467l2-0.683c0.188-1.178,0.705-2.188,1.55-3.033
		c0.855-0.854,1.872-1.378,3.05-1.567l0.667-1.982h0.45l0.684,1.982c1.199,0.189,2.216,0.711,3.05,1.567
		c0.855,0.855,1.378,1.861,1.566,3.017l1.968,0.701v0.467L-707.984,860.799z M-712.317,863.715c0.878-0.854,1.316-1.91,1.316-3.166
		c0-1.268-0.438-2.312-1.316-3.133c-0.855-0.879-1.905-1.317-3.15-1.317s-2.295,0.438-3.15,1.317c-0.866,0.844-1.3,1.889-1.3,3.133
		c0,1.222,0.434,2.277,1.3,3.166c0.855,0.879,1.905,1.317,3.15,1.317S-713.173,864.594-712.317,863.715z M-715.468,857.683
		c0.789,0,1.464,0.28,2.025,0.842c0.561,0.562,0.842,1.236,0.842,2.024c0,0.789-0.281,1.467-0.842,2.033
		c-0.562,0.566-1.236,0.851-2.025,0.851s-1.464-0.284-2.025-0.851c-0.561-0.566-0.842-1.244-0.842-2.033
		c0-0.788,0.281-1.463,0.842-2.024C-716.932,857.963-716.257,857.683-715.468,857.683z"/>
</g>
<g transform="translate(724 0)">
	<path fill="#43AAA4" d="M-657.984,860.799l-1.968,0.684c-0.188,1.166-0.711,2.178-1.566,3.033
		c-0.856,0.855-1.879,1.377-3.067,1.566l-0.667,1.918h-0.45l-0.649-1.918c-1.167-0.188-2.189-0.711-3.067-1.566
		c-0.822-0.822-1.339-1.833-1.55-3.033l-2-0.684v-0.467l2-0.683c0.188-1.178,0.705-2.188,1.55-3.033
		c0.855-0.854,1.872-1.378,3.05-1.567l0.667-1.982h0.45l0.684,1.982c1.199,0.189,2.216,0.711,3.05,1.567
		c0.855,0.855,1.378,1.861,1.566,3.017l1.968,0.701v0.467L-657.984,860.799z M-662.317,863.715c0.878-0.854,1.316-1.91,1.316-3.166
		c0-1.268-0.438-2.312-1.316-3.133c-0.855-0.879-1.905-1.317-3.15-1.317s-2.295,0.438-3.15,1.317c-0.866,0.844-1.3,1.889-1.3,3.133
		c0,1.222,0.434,2.277,1.3,3.166c0.855,0.879,1.905,1.317,3.15,1.317S-663.173,864.594-662.317,863.715z M-665.468,857.683
		c0.789,0,1.464,0.28,2.025,0.842c0.561,0.562,0.842,1.236,0.842,2.024c0,0.789-0.281,1.467-0.842,2.033
		c-0.562,0.566-1.236,0.851-2.025,0.851s-1.464-0.284-2.025-0.851c-0.561-0.566-0.842-1.244-0.842-2.033
		c0-0.788,0.281-1.463,0.842-2.024C-666.932,857.963-666.257,857.683-665.468,857.683z"/>
</g>
<g transform="translate(250 0)">
	<path fill="#514B38" d="M-237.935,910.217c0.778,0,1.437,0.273,1.975,0.817c0.539,0.545,0.808,1.2,0.808,1.968
		c0,0.766-0.27,1.422-0.808,1.967s-1.197,0.816-1.975,0.816c-0.767,0-1.422-0.271-1.967-0.816c-0.545-0.545-0.817-1.201-0.817-1.967
		c0-0.734,0.25-1.367,0.75-1.9l-1.017-1.667c-0.167,0.044-0.355,0.067-0.567,0.067s-0.4-0.023-0.567-0.067l-0.983,1.616
		c0.534,0.534,0.8,1.184,0.8,1.951c0,0.766-0.272,1.422-0.817,1.967c-0.545,0.545-1.201,0.816-1.967,0.816s-1.422-0.271-1.967-0.816
		c-0.545-0.545-0.817-1.201-0.817-1.967c0-0.768,0.272-1.423,0.817-1.968c0.544-0.544,1.2-0.817,1.967-0.817
		c0.111,0,0.256,0.012,0.433,0.033l1.033-1.683c-0.479-0.533-0.717-1.155-0.717-1.867c0-0.767,0.272-1.423,0.817-1.967
		c0.545-0.545,1.201-0.817,1.967-0.817s1.422,0.272,1.967,0.817c0.545,0.544,0.817,1.2,0.817,1.967c0,0.733-0.239,1.356-0.717,1.867
		l1.017,1.7c0.188-0.033,0.366-0.051,0.533-0.051H-237.935z M-242.617,906.701c0,0.301,0.105,0.553,0.317,0.758
		s0.461,0.309,0.75,0.309s0.539-0.104,0.75-0.309s0.317-0.457,0.317-0.758c0-0.289-0.105-0.535-0.317-0.742
		c-0.211-0.205-0.461-0.309-0.75-0.308s-0.539,0.104-0.75,0.308C-242.512,906.164-242.617,906.411-242.617,906.701z
		 M-245.084,914.067c0.289,0,0.539-0.105,0.75-0.317c0.211-0.211,0.317-0.461,0.317-0.75c0-0.288-0.105-0.538-0.317-0.75
		c-0.211-0.211-0.461-0.316-0.75-0.316s-0.539,0.105-0.75,0.316c-0.211,0.212-0.317,0.462-0.317,0.75
		c0,0.289,0.105,0.539,0.317,0.75C-245.623,913.962-245.373,914.067-245.084,914.067z M-237.935,914.067
		c0.289,0,0.539-0.105,0.75-0.317c0.211-0.211,0.317-0.461,0.317-0.75c0-0.288-0.106-0.538-0.317-0.75
		c-0.211-0.211-0.461-0.316-0.75-0.316c-0.289,0-0.536,0.105-0.742,0.316c-0.206,0.212-0.309,0.462-0.308,0.75
		c0,0.289,0.104,0.539,0.308,0.75C-238.472,913.962-238.225,914.067-237.935,914.067z"/>
</g>
<g transform="translate(300 0)">
	<path fill="#514B38" d="M-291.65,964.5c0.233,0,0.417-0.111,0.551-0.333c0.133-0.233,0.322-0.456,0.566-0.667
		c0.455-0.412,0.973-0.617,1.55-0.617c0.589,0,1.122,0.217,1.601,0.65c0.078,0.066,0.222,0.222,0.433,0.467
		c0.012,0.012,0.028,0.033,0.05,0.066c0.022,0.033,0.039,0.057,0.051,0.067l0.017,0.033v0.017l0.1,0.15l0.15-0.067l0.933-0.25
		v-6.782l-0.066-0.25v-0.018l-0.018-0.033c-0.311-0.434-0.583-0.756-0.816-0.967c-0.723-0.645-1.533-0.967-2.434-0.967
		c-0.922,0-1.732,0.328-2.433,0.982c-0.056,0.045-0.139,0.123-0.25,0.233l-0.25-0.25c-0.745-0.645-1.562-0.967-2.45-0.967
		c-0.911,0-1.717,0.327-2.417,0.983c-0.311,0.277-0.572,0.6-0.783,0.967l-0.017,0.017l-0.067,0.267v6.801l0.917,0.232l0.167,0.083
		l0.1-0.183l0.033-0.051c0.022-0.021,0.047-0.055,0.075-0.1c0.028-0.045,0.064-0.095,0.108-0.15
		c0.044-0.055,0.097-0.115,0.158-0.183c0.061-0.066,0.125-0.128,0.192-0.183c0.455-0.412,0.972-0.617,1.55-0.617
		c0.589,0,1.122,0.217,1.6,0.65c0.155,0.145,0.294,0.3,0.417,0.467l0.117,0.133l0.017,0.033v0.017
		C-292.078,964.395-291.895,964.5-291.65,964.5z M-294.35,961.617h-0.017c-0.733,0-1.405,0.222-2.017,0.666v-4.85
		c0.122-0.199,0.283-0.383,0.483-0.55c0.455-0.411,0.972-0.617,1.55-0.617c0.589,0,1.122,0.217,1.6,0.65
		c0.155,0.145,0.294,0.3,0.417,0.467l0.05,0.05v4.867C-292.939,961.846-293.628,961.617-294.35,961.617L-294.35,961.617z
		 M-288.984,961.617c-0.744,0-1.422,0.222-2.032,0.666v-4.85c0.122-0.199,0.282-0.383,0.482-0.55
		c0.455-0.411,0.973-0.617,1.55-0.617c0.589,0,1.122,0.217,1.601,0.65c0.078,0.066,0.222,0.222,0.433,0.467l0.033,0.05v4.867
		C-287.552,961.846-288.24,961.617-288.984,961.617L-288.984,961.617z"/>
</g>
<g transform="translate(538 0)">
	<path fill="#514B38" d="M-523.459,1005.528c0.618,0.618,1.051,1.248,1.301,1.893c0.25,0.644,0.23,1.104-0.06,1.38
		c-0.144,0.171-0.38,0.242-0.709,0.216c-0.29,0-0.564,0.033-0.828,0.099l-2.03,2.029c-0.092,0.303-0.155,0.625-0.187,0.967
		c-0.032,0.343-0.042,0.605-0.029,0.789l0.02,0.274v-0.02c0.132,0.632,0.046,1.084-0.256,1.36c-0.381,0.394-1.019,0.424-1.912,0.089
		s-1.78-0.943-2.66-1.825c-0.867-0.865-1.468-1.745-1.804-2.639c-0.335-0.895-0.305-1.537,0.089-1.932
		c0.342-0.342,0.899-0.394,1.675-0.156c0.552,0.025,1.104-0.041,1.656-0.199l2.148-2.147c0.041-0.145,0.073-0.381,0.098-0.709
		c-0.04-0.29,0.026-0.533,0.197-0.729c0.29-0.276,0.753-0.294,1.391-0.05C-524.723,1004.46-524.089,1004.896-523.459,1005.528
		L-523.459,1005.528z M-534.948,1016.998l2.876-4.315c0.263,0.314,0.479,0.552,0.651,0.709c0.249,0.25,0.513,0.493,0.789,0.729
		L-534.948,1016.998z"/>
</g>
<g transform="translate(538 0)">
	<g>
		<path fill="#43AAA4" d="M-473.459,1005.528c0.618,0.618,1.051,1.248,1.301,1.893c0.25,0.644,0.23,1.104-0.06,1.38
			c-0.144,0.171-0.38,0.242-0.709,0.216c-0.29,0-0.564,0.033-0.828,0.099l-2.03,2.029c-0.092,0.303-0.155,0.625-0.187,0.967
			c-0.032,0.343-0.042,0.605-0.029,0.789l0.02,0.274v-0.02c0.132,0.632,0.046,1.084-0.256,1.36
			c-0.381,0.394-1.019,0.424-1.912,0.089s-1.78-0.943-2.66-1.825c-0.867-0.865-1.468-1.745-1.804-2.639
			c-0.335-0.895-0.305-1.537,0.089-1.932c0.342-0.342,0.899-0.394,1.675-0.156c0.552,0.025,1.104-0.041,1.656-0.199l2.148-2.147
			c0.041-0.145,0.073-0.381,0.098-0.709c-0.04-0.29,0.026-0.533,0.197-0.729c0.29-0.276,0.753-0.294,1.391-0.05
			C-474.723,1004.46-474.089,1004.896-473.459,1005.528L-473.459,1005.528z M-484.948,1016.998l2.876-4.315
			c0.263,0.314,0.479,0.552,0.651,0.709c0.249,0.25,0.513,0.493,0.789,0.729L-484.948,1016.998z"/>
	</g>
</g>
<g transform="translate(538 0)">
	<g>
		<path fill="#9E9D98" d="M-424.459,1005.481c0.618,0.618,1.051,1.248,1.302,1.893c0.249,0.644,0.229,1.104-0.061,1.38
			c-0.145,0.171-0.38,0.242-0.709,0.216c-0.29,0-0.564,0.033-0.828,0.099l-2.029,2.029c-0.093,0.303-0.155,0.625-0.188,0.967
			c-0.032,0.343-0.041,0.605-0.028,0.789l0.02,0.274v-0.02c0.131,0.632,0.046,1.084-0.257,1.36
			c-0.381,0.394-1.019,0.424-1.912,0.089s-1.78-0.943-2.66-1.824c-0.867-0.866-1.468-1.746-1.804-2.64
			c-0.335-0.895-0.305-1.537,0.089-1.931c0.342-0.342,0.899-0.395,1.676-0.157c0.552,0.025,1.104-0.041,1.655-0.199l2.147-2.147
			c0.041-0.145,0.073-0.381,0.099-0.709c-0.039-0.29,0.026-0.533,0.197-0.729c0.29-0.276,0.753-0.293,1.391-0.05
			C-425.724,1004.413-425.09,1004.85-424.459,1005.481L-424.459,1005.481z M-435.948,1016.951l2.876-4.315
			c0.264,0.314,0.479,0.552,0.651,0.709c0.25,0.25,0.513,0.493,0.789,0.73L-435.948,1016.951z"/>
	</g>
</g>
<g transform="translate(538 0)">
	<path fill="#FFFFFF" d="M-374.495,1005.481c0.618,0.618,1.051,1.248,1.302,1.893c0.249,0.644,0.229,1.104-0.061,1.38
		c-0.145,0.171-0.38,0.242-0.709,0.216c-0.289,0-0.564,0.033-0.828,0.099l-2.029,2.029c-0.093,0.303-0.155,0.625-0.188,0.967
		c-0.032,0.343-0.041,0.605-0.029,0.789l0.02,0.274v-0.02c0.133,0.632,0.047,1.084-0.256,1.36c-0.381,0.394-1.019,0.424-1.912,0.089
		s-1.78-0.943-2.66-1.825c-0.867-0.865-1.468-1.745-1.804-2.639c-0.335-0.895-0.306-1.537,0.089-1.932
		c0.342-0.342,0.899-0.394,1.676-0.156c0.552,0.025,1.104-0.041,1.655-0.199l2.147-2.147c0.041-0.145,0.073-0.381,0.099-0.709
		c-0.04-0.29,0.026-0.533,0.197-0.729c0.29-0.276,0.753-0.294,1.391-0.05C-375.76,1004.413-375.125,1004.85-374.495,1005.481
		L-374.495,1005.481z M-385.984,1016.951l2.877-4.315c0.263,0.314,0.479,0.552,0.65,0.709c0.25,0.25,0.514,0.493,0.789,0.729
		L-385.984,1016.951z"/>
</g>
<g transform="translate(493 0)">
	<path fill="#514B38" d="M-485.367,1061.634c0.767,0,1.422-0.272,1.967-0.817l2-2c0.545-0.545,0.817-1.2,0.817-1.967
		c0-0.744-0.272-1.4-0.817-1.967l-0.083-0.083c-0.556-0.533-1.211-0.8-1.967-0.8c-0.778,0-1.434,0.267-1.967,0.8l-0.817,0.833
		c-0.167,0.166-0.25,0.367-0.25,0.6c0,0.234,0.083,0.434,0.25,0.601c0.167,0.178,0.369,0.267,0.608,0.267
		c0.238,0,0.441-0.089,0.607-0.267l0.817-0.817c0.2-0.199,0.45-0.3,0.75-0.3c0.288,0,0.538,0.101,0.75,0.3l0.083,0.083
		c0.2,0.212,0.3,0.462,0.3,0.75c0,0.3-0.1,0.55-0.3,0.75l-2,2c-0.2,0.2-0.45,0.3-0.75,0.3c-0.278,0-0.528-0.1-0.75-0.3l-0.083-0.083
		l-1.217,1.217l0.1,0.084C-486.773,1061.36-486.124,1061.633-485.367,1061.634L-485.367,1061.634z M-488.134,1065.017
		c0.778,0,1.434-0.272,1.968-0.817l0.866-0.866c0.167-0.167,0.25-0.366,0.25-0.601c0-0.232-0.083-0.434-0.25-0.6
		c-0.166-0.178-0.369-0.268-0.607-0.268c-0.239,0-0.441,0.084-0.608,0.25l-0.867,0.867c-0.211,0.212-0.461,0.317-0.75,0.317
		c-0.288,0-0.538-0.105-0.75-0.317l-0.083-0.082c-0.199-0.212-0.3-0.462-0.3-0.75c0-0.289,0.101-0.539,0.3-0.75l2-1.983
		c0.2-0.212,0.45-0.317,0.75-0.317c0.289,0,0.539,0.105,0.75,0.317l0.083,0.083l1.218-1.217l-0.25-0.25
		c-0.067-0.066-0.14-0.117-0.218-0.15c-0.466-0.334-0.994-0.5-1.583-0.5c-0.777,0-1.434,0.272-1.967,0.816l-2,1.983
		c-0.533,0.534-0.8,1.189-0.8,1.968c-0.022,0.744,0.245,1.4,0.8,1.967l0.083,0.082
		C-489.534,1064.744-488.877,1065.017-488.134,1065.017L-488.134,1065.017z"/>
</g>
<g transform="translate(493 0)">
	<path fill="#FFFFFF" d="M-335.368,1061.634c0.768,0,1.422-0.272,1.967-0.817l2-2c0.545-0.545,0.818-1.2,0.818-1.967
		c0-0.744-0.273-1.4-0.818-1.967l-0.082-0.083c-0.557-0.533-1.211-0.8-1.967-0.8c-0.779,0-1.434,0.267-1.967,0.8l-0.818,0.833
		c-0.166,0.166-0.25,0.367-0.25,0.6c0,0.234,0.084,0.434,0.25,0.601c0.168,0.178,0.369,0.267,0.609,0.267
		c0.238,0,0.441-0.089,0.607-0.267l0.816-0.817c0.201-0.199,0.451-0.3,0.75-0.3c0.289,0,0.539,0.101,0.75,0.3l0.084,0.083
		c0.199,0.212,0.299,0.462,0.299,0.75c0,0.3-0.1,0.55-0.299,0.75l-2,2c-0.201,0.2-0.451,0.3-0.75,0.3c-0.279,0-0.529-0.1-0.75-0.3
		l-0.084-0.083l-1.217,1.217l0.1,0.084C-336.774,1061.36-336.124,1061.633-335.368,1061.634L-335.368,1061.634z M-338.136,1065.017
		c0.779,0,1.434-0.272,1.969-0.817l0.865-0.866c0.168-0.167,0.25-0.366,0.25-0.601c0-0.232-0.082-0.434-0.25-0.6
		c-0.166-0.178-0.369-0.268-0.607-0.268s-0.441,0.084-0.607,0.25l-0.867,0.867c-0.211,0.212-0.461,0.317-0.75,0.317
		s-0.539-0.105-0.75-0.317l-0.084-0.082c-0.199-0.212-0.299-0.462-0.299-0.75c0-0.289,0.1-0.539,0.299-0.75l2-1.983
		c0.201-0.212,0.451-0.317,0.75-0.317c0.289,0,0.539,0.105,0.75,0.317l0.084,0.083l1.217-1.217l-0.25-0.25
		c-0.066-0.066-0.139-0.117-0.217-0.15c-0.467-0.334-0.994-0.5-1.584-0.5c-0.777,0-1.434,0.272-1.967,0.816l-2,1.983
		c-0.533,0.534-0.799,1.189-0.799,1.968c-0.023,0.744,0.244,1.4,0.799,1.967l0.084,0.082c0.566,0.545,1.223,0.817,1.967,0.817
		H-338.136z"/>
</g>
<g transform="translate(200 50)">
	<path fill="#514B38" d="M-186.766,1057.399l-1.2,1.217c-0.055,0.045-0.13,0.092-0.225,0.143c-0.094,0.049-0.258,0.074-0.492,0.074
		s-0.439-0.094-0.617-0.283c-0.178-0.199-0.267-0.405-0.267-0.617c0-0.211,0.044-0.371,0.133-0.482l0.133-0.167l1.217-1.2
		c0.222-0.244,0.333-0.517,0.333-0.816c0-0.301-0.111-0.572-0.333-0.817l-0.1-0.083c-0.233-0.233-0.5-0.35-0.8-0.35
		c-0.322,0-0.6,0.116-0.833,0.35l-1.083,1.083c-0.188,0.188-0.411,0.283-0.667,0.283c-0.256,0-0.478-0.095-0.667-0.283
		c-0.188-0.188-0.283-0.411-0.283-0.667s0.094-0.473,0.283-0.65l1.1-1.1c0.589-0.589,1.3-0.883,2.133-0.883h0.017
		c0.822,0,1.528,0.294,2.117,0.883l0.1,0.1c0.588,0.589,0.883,1.3,0.883,2.133C-185.884,1056.099-186.179,1056.81-186.766,1057.399
		L-186.766,1057.399z M-194.049,1054.666l-0.95-2.467l-0.433,0.183l0.933,2.45L-194.049,1054.666z M-194.749,1054.899l-1.867-1.85
		l-0.35,0.332l1.867,1.867L-194.749,1054.899z M-195.166,1055.499l-2.467-0.933l-0.167,0.433l2.467,0.95L-195.166,1055.499z
		 M-197.066,1058.899l1.217-1.2c0.055-0.045,0.13-0.095,0.225-0.149c0.094-0.056,0.258-0.084,0.492-0.084s0.439,0.101,0.617,0.301
		c0.178,0.232,0.264,0.441,0.258,0.625c-0.006,0.184-0.053,0.33-0.142,0.441l-0.133,0.184l-1.2,1.217
		c-0.233,0.222-0.35,0.488-0.35,0.8c0,0.322,0.117,0.6,0.35,0.833l0.083,0.083c0.222,0.222,0.495,0.333,0.817,0.333
		c0.322,0,0.595-0.111,0.817-0.333l1.1-1.101c0.178-0.188,0.395-0.282,0.65-0.282s0.478,0.095,0.667,0.282
		c0.189,0.189,0.284,0.412,0.283,0.668c0,0.256-0.095,0.479-0.283,0.666l-1.1,1.084c-0.589,0.6-1.3,0.899-2.133,0.899
		c-0.822,0-1.533-0.3-2.133-0.899l-0.1-0.084c-0.588-0.588-0.883-1.305-0.883-2.149c0-0.812,0.294-1.522,0.883-2.133
		L-197.066,1058.899z M-185.982,1061.134l-2.467-0.934l-0.167,0.434l2.467,0.949L-185.982,1061.134z M-186.816,1062.767
		l-1.867-1.867l-0.333,0.333l1.867,1.866L-186.816,1062.767z M-188.332,1063.767l-0.95-2.467l-0.433,0.166l0.933,2.467
		L-188.332,1063.767z"/>
</g>
<g transform="translate(200 50)">
	<path fill="#FFFFFF" d="M-36.803,1057.267l-1.201,1.217c-0.055,0.045-0.13,0.092-0.225,0.143c-0.094,0.049-0.258,0.074-0.492,0.074
		c-0.232,0-0.438-0.094-0.617-0.283c-0.178-0.199-0.267-0.405-0.267-0.617c0-0.211,0.044-0.371,0.134-0.482l0.133-0.167l1.217-1.2
		c0.222-0.244,0.333-0.517,0.333-0.816c0-0.301-0.111-0.572-0.333-0.817l-0.1-0.083c-0.234-0.233-0.5-0.35-0.801-0.35
		c-0.322,0-0.6,0.116-0.833,0.35l-1.083,1.083c-0.188,0.188-0.41,0.283-0.667,0.283c-0.256,0-0.478-0.095-0.667-0.283
		c-0.188-0.188-0.283-0.411-0.283-0.667s0.095-0.473,0.283-0.65l1.1-1.1c0.59-0.589,1.301-0.883,2.134-0.883h0.017
		c0.822,0,1.527,0.294,2.117,0.883l0.1,0.1c0.589,0.589,0.883,1.3,0.883,2.133c0,0.834-0.294,1.545-0.883,2.134L-36.803,1057.267z
		 M-44.086,1054.533l-0.95-2.467l-0.433,0.183l0.933,2.45L-44.086,1054.533z M-44.786,1054.767l-1.867-1.85l-0.351,0.332
		l1.867,1.867L-44.786,1054.767z M-45.203,1055.366l-2.467-0.933l-0.168,0.433l2.468,0.95L-45.203,1055.366z M-47.104,1058.767
		l1.217-1.2c0.056-0.045,0.131-0.095,0.226-0.149c0.095-0.056,0.259-0.084,0.491-0.084c0.234,0,0.439,0.101,0.617,0.301
		c0.178,0.232,0.265,0.441,0.258,0.625c-0.006,0.184-0.053,0.33-0.142,0.441l-0.133,0.184l-1.2,1.217
		c-0.232,0.222-0.35,0.488-0.35,0.8c0,0.322,0.117,0.6,0.35,0.833l0.083,0.083c0.222,0.222,0.495,0.333,0.817,0.333
		s0.595-0.111,0.816-0.333l1.101-1.101c0.178-0.188,0.395-0.282,0.649-0.282c0.256,0,0.479,0.095,0.668,0.282
		c0.189,0.189,0.283,0.412,0.282,0.668s-0.095,0.479-0.282,0.666l-1.101,1.084c-0.589,0.6-1.3,0.899-2.133,0.899
		c-0.822,0-1.533-0.3-2.134-0.899l-0.1-0.084c-0.588-0.588-0.883-1.305-0.883-2.149c0-0.812,0.295-1.522,0.883-2.133
		L-47.104,1058.767z M-36.02,1061.001l-2.467-0.934l-0.167,0.434l2.467,0.949L-36.02,1061.001z M-36.854,1062.634l-1.867-1.867
		l-0.332,0.333l1.866,1.866L-36.854,1062.634z M-38.369,1063.634l-0.95-2.467l-0.433,0.166l0.933,2.467L-38.369,1063.634z"/>
</g>
<g transform="translate(250 50)">
	<path fill="#FFFFFF" d="M-91,705h1c0.078,0.034,0.172,0.083,0.283,0.15c0.11,0.066,0.258,0.188,0.441,0.366
		C-89.091,705.695-89,705.856-89,706v1h-8v-1c0-0.3,0.162-0.489,0.328-0.656c0.166-0.166,0.506-0.333,0.672-0.344l0,0h1v-1
		c0-0.278,0.103-0.514,0.309-0.708c0.205-0.193,0.436-0.291,0.691-0.292h2c0.277,0,0.514,0.095,0.708,0.283S-91,703.711-91,704V705z
		 M-94,705h2c0-0.278-0.1-0.514-0.3-0.708c-0.2-0.193-0.434-0.291-0.7-0.292l0,0c-0.267,0-0.5,0.101-0.7,0.3
		C-93.9,704.5-94,704.733-94,705z M-91.271,708.021l1.25-0.021v5c0,0.3-0.084,0.534-0.25,0.7s-0.334,0.256-0.5,0.268l-0.25,0.032
		H-95c-0.078,0-0.172-0.009-0.283-0.024c-0.11-0.018-0.258-0.109-0.441-0.275C-95.909,713.534-96,713.3-96,713v-5h1.255v4.578h1.016
		V708l1.428,0.021v4.578h1.031V708.021z"/>
</g>
<g opacity="0.2">
	<line fill="none" stroke="#F2F2F2" stroke-miterlimit="10" x1="-51" y1="1250" x2="-0.974" y2="1199.975"/>
	<line fill="none" stroke="#F2F2F2" stroke-miterlimit="10" x1="-47" y1="1250" x2="3.025" y2="1199.975"/>
	<line fill="none" stroke="#F2F2F2" stroke-miterlimit="10" x1="-43" y1="1250" x2="7.026" y2="1199.975"/>
	<line fill="none" stroke="#F2F2F2" stroke-miterlimit="10" x1="-39" y1="1250" x2="11.026" y2="1199.975"/>
	<line fill="none" stroke="#F2F2F2" stroke-miterlimit="10" x1="-35" y1="1250" x2="15.025" y2="1199.975"/>
	<line fill="none" stroke="#F2F2F2" stroke-miterlimit="10" x1="-31" y1="1250" x2="19.026" y2="1199.975"/>
	<line fill="none" stroke="#F2F2F2" stroke-miterlimit="10" x1="-27" y1="1250" x2="23.026" y2="1199.975"/>
	<line fill="none" stroke="#F2F2F2" stroke-miterlimit="10" x1="-23" y1="1250" x2="27.025" y2="1199.975"/>
	<line fill="none" stroke="#F2F2F2" stroke-miterlimit="10" x1="-19" y1="1250" x2="31.026" y2="1199.975"/>
	<line fill="none" stroke="#F2F2F2" stroke-miterlimit="10" x1="-15" y1="1250" x2="35.026" y2="1199.975"/>
	<line fill="none" stroke="#F2F2F2" stroke-miterlimit="10" x1="-11" y1="1250" x2="39.025" y2="1199.975"/>
	<line fill="none" stroke="#F2F2F2" stroke-miterlimit="10" x1="-7" y1="1250" x2="43.026" y2="1199.975"/>
	<line fill="none" stroke="#F2F2F2" stroke-miterlimit="10" x1="-3" y1="1250" x2="47.026" y2="1199.975"/>
	<line fill="none" stroke="#F2F2F2" stroke-miterlimit="10" x1="1" y1="1250" x2="51.025" y2="1199.975"/>
	<line fill="none" stroke="#F2F2F2" stroke-miterlimit="10" x1="5" y1="1250" x2="55.025" y2="1199.975"/>
	<line fill="none" stroke="#F2F2F2" stroke-miterlimit="10" x1="9" y1="1250" x2="59.025" y2="1199.975"/>
	<line fill="none" stroke="#F2F2F2" stroke-miterlimit="10" x1="13" y1="1250" x2="63.025" y2="1199.975"/>
	<line fill="none" stroke="#F2F2F2" stroke-miterlimit="10" x1="17" y1="1250" x2="67.025" y2="1199.975"/>
	<line fill="none" stroke="#F2F2F2" stroke-miterlimit="10" x1="21" y1="1250" x2="71.025" y2="1199.975"/>
	<line fill="none" stroke="#F2F2F2" stroke-miterlimit="10" x1="25" y1="1250" x2="75.025" y2="1199.975"/>
	<line fill="none" stroke="#F2F2F2" stroke-miterlimit="10" x1="29" y1="1250" x2="79.025" y2="1199.975"/>
	<line fill="none" stroke="#F2F2F2" stroke-miterlimit="10" x1="33" y1="1250" x2="83.025" y2="1199.975"/>
	<line fill="none" stroke="#F2F2F2" stroke-miterlimit="10" x1="37" y1="1250" x2="87.025" y2="1199.975"/>
	<line fill="none" stroke="#F2F2F2" stroke-miterlimit="10" x1="41" y1="1250" x2="91.025" y2="1199.975"/>
	<line fill="none" stroke="#F2F2F2" stroke-miterlimit="10" x1="45" y1="1250" x2="95.025" y2="1199.975"/>
	<line fill="none" stroke="#F2F2F2" stroke-miterlimit="10" x1="49" y1="1250" x2="99.025" y2="1199.975"/>
	<line fill="none" stroke="#F2F2F2" stroke-miterlimit="10" x1="53" y1="1250" x2="103.025" y2="1199.975"/>
	<line fill="none" stroke="#F2F2F2" stroke-miterlimit="10" x1="57" y1="1250" x2="107.025" y2="1199.975"/>
	<line fill="none" stroke="#F2F2F2" stroke-miterlimit="10" x1="61" y1="1250" x2="111.025" y2="1199.975"/>
	<line fill="none" stroke="#F2F2F2" stroke-miterlimit="10" x1="65" y1="1250" x2="115.025" y2="1199.975"/>
	<line fill="none" stroke="#F2F2F2" stroke-miterlimit="10" x1="69" y1="1250" x2="119.025" y2="1199.975"/>
	<line fill="none" stroke="#F2F2F2" stroke-miterlimit="10" x1="73" y1="1250" x2="123.025" y2="1199.975"/>
	<line fill="none" stroke="#F2F2F2" stroke-miterlimit="10" x1="77" y1="1250" x2="127.025" y2="1199.975"/>
	<line fill="none" stroke="#F2F2F2" stroke-miterlimit="10" x1="81" y1="1250" x2="131.025" y2="1199.975"/>
	<line fill="none" stroke="#F2F2F2" stroke-miterlimit="10" x1="85" y1="1250" x2="135.025" y2="1199.975"/>
	<line fill="none" stroke="#F2F2F2" stroke-miterlimit="10" x1="89" y1="1250" x2="139.025" y2="1199.975"/>
	<line fill="none" stroke="#F2F2F2" stroke-miterlimit="10" x1="93" y1="1250" x2="143.025" y2="1199.975"/>
	<line fill="none" stroke="#F2F2F2" stroke-miterlimit="10" x1="97" y1="1250" x2="147.025" y2="1199.975"/>
	<line fill="none" stroke="#F2F2F2" stroke-miterlimit="10" x1="101" y1="1250" x2="151.025" y2="1199.975"/>
	<line fill="none" stroke="#F2F2F2" stroke-miterlimit="10" x1="105" y1="1250" x2="155.025" y2="1199.975"/>
	<line fill="none" stroke="#F2F2F2" stroke-miterlimit="10" x1="109" y1="1250" x2="159.025" y2="1199.975"/>
	<line fill="none" stroke="#F2F2F2" stroke-miterlimit="10" x1="113" y1="1250" x2="163.025" y2="1199.975"/>
	<line fill="none" stroke="#F2F2F2" stroke-miterlimit="10" x1="117" y1="1250" x2="167.025" y2="1199.975"/>
	<line fill="none" stroke="#F2F2F2" stroke-miterlimit="10" x1="121" y1="1250" x2="171.025" y2="1199.975"/>
	<line fill="none" stroke="#F2F2F2" stroke-miterlimit="10" x1="125" y1="1250" x2="175.025" y2="1199.975"/>
	<line fill="none" stroke="#F2F2F2" stroke-miterlimit="10" x1="129" y1="1250" x2="179.025" y2="1199.975"/>
	<line fill="none" stroke="#F2F2F2" stroke-miterlimit="10" x1="133" y1="1250" x2="183.025" y2="1199.975"/>
	<line fill="none" stroke="#F2F2F2" stroke-miterlimit="10" x1="137" y1="1250" x2="187.025" y2="1199.975"/>
	<line fill="none" stroke="#F2F2F2" stroke-miterlimit="10" x1="141" y1="1250" x2="191.025" y2="1199.975"/>
	<line fill="none" stroke="#F2F2F2" stroke-miterlimit="10" x1="145" y1="1250" x2="195.025" y2="1199.975"/>
	<line fill="none" stroke="#F2F2F2" stroke-miterlimit="10" x1="149" y1="1250" x2="199.025" y2="1199.975"/>
	<line fill="none" stroke="#F2F2F2" stroke-miterlimit="10" x1="153" y1="1250" x2="203.025" y2="1199.975"/>
	<line fill="none" stroke="#F2F2F2" stroke-miterlimit="10" x1="157" y1="1250" x2="207.025" y2="1199.975"/>
	<line fill="none" stroke="#F2F2F2" stroke-miterlimit="10" x1="161" y1="1250" x2="211.025" y2="1199.975"/>
	<line fill="none" stroke="#F2F2F2" stroke-miterlimit="10" x1="165" y1="1250" x2="215.025" y2="1199.975"/>
	<line fill="none" stroke="#F2F2F2" stroke-miterlimit="10" x1="169" y1="1250" x2="219.025" y2="1199.975"/>
	<line fill="none" stroke="#F2F2F2" stroke-miterlimit="10" x1="173" y1="1250" x2="223.025" y2="1199.975"/>
	<line fill="none" stroke="#F2F2F2" stroke-miterlimit="10" x1="177" y1="1250" x2="227.025" y2="1199.975"/>
	<line fill="none" stroke="#F2F2F2" stroke-miterlimit="10" x1="181" y1="1250" x2="231.025" y2="1199.975"/>
	<line fill="none" stroke="#F2F2F2" stroke-miterlimit="10" x1="185" y1="1250" x2="235.025" y2="1199.975"/>
	<line fill="none" stroke="#F2F2F2" stroke-miterlimit="10" x1="189" y1="1250" x2="239.025" y2="1199.975"/>
	<line fill="none" stroke="#F2F2F2" stroke-miterlimit="10" x1="193" y1="1250" x2="243.025" y2="1199.975"/>
	<line fill="none" stroke="#F2F2F2" stroke-miterlimit="10" x1="197" y1="1250" x2="247.025" y2="1199.975"/>
	<line fill="none" stroke="#F2F2F2" stroke-miterlimit="10" x1="201" y1="1250" x2="251.025" y2="1199.975"/>
	<line fill="none" stroke="#F2F2F2" stroke-miterlimit="10" x1="205" y1="1250" x2="255.025" y2="1199.975"/>
	<line fill="none" stroke="#F2F2F2" stroke-miterlimit="10" x1="209" y1="1250" x2="259.025" y2="1199.975"/>
	<line fill="none" stroke="#F2F2F2" stroke-miterlimit="10" x1="213" y1="1250" x2="263.025" y2="1199.975"/>
</g>
<g transform="translate(100 50)">
	<path fill="#514B38" d="M-83,1165l-9,9h9l9-9l-9-9h-9L-83,1165z"/>
</g>
<g transform="translate(724 0)">
	<path fill="#514B38" d="M-592.997,1214.946l-3.021,1.05c-0.29,1.789-1.092,3.343-2.405,4.655c-1.314,1.314-2.884,2.114-4.708,2.404
		l-1.023,2.944h-0.691l-0.996-2.944c-1.792-0.289-3.361-1.09-4.709-2.404c-1.263-1.261-2.056-2.813-2.379-4.655l-3.07-1.05v-0.717
		l3.07-1.047c0.289-1.809,1.081-3.359,2.379-4.656c1.312-1.312,2.874-2.115,4.682-2.406l1.023-3.043h0.691l1.049,3.043
		c1.841,0.291,3.401,1.092,4.682,2.406c1.313,1.312,2.115,2.856,2.404,4.63l3.021,1.077v0.717L-592.997,1214.946z
		 M-599.648,1219.423c1.348-1.312,2.021-2.933,2.021-4.86c0-1.945-0.673-3.548-2.021-4.809c-1.313-1.349-2.925-2.021-4.836-2.021
		s-3.523,0.673-4.836,2.021c-1.329,1.296-1.995,2.899-1.995,4.809c0,1.875,0.666,3.496,1.995,4.86
		c1.312,1.349,2.925,2.022,4.836,2.022S-600.962,1220.771-599.648,1219.423z M-604.484,1210.163c1.212,0,2.247,0.431,3.108,1.292
		c0.861,0.862,1.293,1.897,1.293,3.107c0,1.212-0.432,2.251-1.293,3.121s-1.896,1.306-3.108,1.306c-1.211,0-2.247-0.436-3.108-1.306
		s-1.293-1.909-1.293-3.121c0-1.21,0.432-2.245,1.293-3.107C-606.731,1210.594-605.695,1210.163-604.484,1210.163z"/>
</g>
<g opacity="0.6">
	<g transform="translate(100 50)">
		<path fill="#5FBA83" d="M-85,1214l5-5l-5-5h-10L-85,1214"/>
	</g>
	<g transform="translate(100 50)">
		<path fill="#2FAEDE" d="M-85,1214l-10,10h10l5-5L-85,1214"/>
	</g>
	<g transform="translate(100 50)">
		<path fill="#0094A5" d="M-80,1219l5-5l-5-5l-5,5l0,0"/>
	</g>
</g>
<g transform="translate(100 50)" opacity="0.2">
	<path fill="none" stroke="#514B38" stroke-miterlimit="10" d="M-84.975,1204.435l-9.587-0.021l9.587,9.587l-9,9"/>
</g>
<g transform="translate(538 0)" opacity="0.3">
	<g>
		<path fill="#4D4D4D" d="M-475.966,1005.078c0.062,0.016,0.14,0.04,0.235,0.076c0.501,0.19,1.022,0.555,1.549,1.083
			c0.516,0.516,0.878,1.037,1.076,1.547c0.038,0.096,0.062,0.174,0.077,0.235c-0.337,0.006-0.667,0.049-0.982,0.127l-0.27,0.067
			l-0.196,0.196l-2.03,2.029l-0.177,0.177l-0.073,0.238c-0.112,0.367-0.188,0.759-0.226,1.165c-0.038,0.398-0.047,0.71-0.031,0.954
			l0.02,0.274l0.72-0.033l-0.701,0.146c0.058,0.277,0.038,0.418,0.048,0.418l0,0l-0.02,0.019l-0.021,0.022
			c0,0-0.034,0.017-0.127,0.017c-0.125,0-0.35-0.029-0.718-0.167c-0.754-0.282-1.529-0.819-2.305-1.597
			c-0.76-0.758-1.29-1.526-1.574-2.281c-0.227-0.606-0.167-0.848-0.15-0.866c0.009-0.005,0.052-0.018,0.133-0.018
			c0.099,0,0.276,0.019,0.552,0.103l0.121,0.037l0.126,0.006c0.092,0.004,0.184,0.006,0.275,0.006c0.567,0,1.14-0.081,1.702-0.243
			l0.249-0.071l0.183-0.183l2.148-2.147l0.185-0.185l0.071-0.252C-476.039,1005.766-475.998,1005.487-475.966,1005.078
			 M-476.155,1004.049c-0.252,0-0.456,0.073-0.61,0.221c-0.171,0.196-0.237,0.439-0.197,0.729c-0.025,0.328-0.058,0.564-0.098,0.709
			l-2.148,2.147c-0.476,0.137-0.951,0.204-1.427,0.204c-0.076,0-0.153-0.001-0.229-0.005c-0.318-0.098-0.6-0.146-0.845-0.146
			c-0.352,0-0.629,0.102-0.831,0.303c-0.394,0.395-0.424,1.037-0.089,1.932c0.336,0.894,0.937,1.773,1.804,2.639
			c0.88,0.882,1.767,1.49,2.66,1.825c0.41,0.153,0.767,0.23,1.069,0.23c0.356,0,0.637-0.106,0.843-0.319
			c0.303-0.276,0.388-0.729,0.256-1.36v0.02l-0.02-0.274c-0.013-0.184-0.003-0.446,0.029-0.789c0.032-0.342,0.095-0.664,0.187-0.967
			l2.03-2.029c0.263-0.065,0.538-0.099,0.828-0.099c0.044,0.004,0.087,0.005,0.128,0.005c0.263,0,0.457-0.073,0.581-0.221
			c0.29-0.276,0.31-0.736,0.06-1.38c-0.25-0.645-0.684-1.274-1.301-1.893c-0.63-0.632-1.264-1.068-1.9-1.311
			C-475.673,1004.105-475.933,1004.049-476.155,1004.049L-476.155,1004.049z M-482.087,1012.685l-2.876,4.315l4.316-2.877
			c-0.276-0.236-0.54-0.479-0.789-0.729C-481.608,1013.236-481.824,1012.999-482.087,1012.685L-482.087,1012.685z"/>
	</g>
</g>
<g transform="translate(538 0)" opacity="0.3">
	<g>
		<path fill="#4D4D4D" d="M-427.002,1005.029c0.062,0.016,0.14,0.04,0.235,0.076c0.5,0.19,1.021,0.555,1.548,1.082
			c0.517,0.518,0.879,1.038,1.076,1.549c0.037,0.096,0.062,0.173,0.077,0.234c-0.337,0.006-0.667,0.049-0.981,0.127l-0.27,0.067
			l-0.196,0.196l-2.031,2.029l-0.177,0.177l-0.073,0.24c-0.111,0.366-0.187,0.758-0.226,1.163c-0.038,0.41-0.048,0.714-0.029,0.954
			l0.02,0.274l0.717-0.033l-0.699,0.146c0.058,0.277,0.037,0.419,0.049,0.419l0,0l-0.021,0.019l-0.021,0.022
			c0,0-0.034,0.017-0.127,0.017c-0.125,0-0.351-0.029-0.719-0.167c-0.754-0.282-1.529-0.819-2.305-1.597
			c-0.76-0.758-1.289-1.526-1.573-2.281c-0.229-0.609-0.163-0.852-0.15-0.866c0.01-0.005,0.052-0.018,0.134-0.018
			c0.099,0,0.275,0.019,0.553,0.103l0.12,0.037l0.126,0.006c0.092,0.004,0.184,0.006,0.274,0.006c0.567,0,1.14-0.081,1.702-0.243
			l0.249-0.071l0.183-0.183l2.147-2.147l0.184-0.184l0.071-0.25C-427.075,1005.72-427.034,1005.44-427.002,1005.029 M-427.191,1004
			c-0.253,0-0.456,0.073-0.61,0.221c-0.171,0.196-0.237,0.439-0.197,0.729c-0.025,0.328-0.058,0.564-0.099,0.709l-2.147,2.147
			c-0.476,0.137-0.951,0.204-1.427,0.204c-0.076,0-0.152-0.001-0.229-0.005c-0.318-0.098-0.6-0.146-0.845-0.146
			c-0.353,0-0.63,0.102-0.831,0.303c-0.395,0.395-0.424,1.037-0.089,1.932c0.336,0.894,0.937,1.773,1.804,2.639
			c0.88,0.882,1.767,1.49,2.66,1.825c0.41,0.153,0.767,0.23,1.069,0.23c0.355,0,0.637-0.106,0.843-0.319
			c0.303-0.276,0.388-0.729,0.257-1.36v0.02l-0.02-0.274c-0.014-0.184-0.004-0.446,0.028-0.789c0.032-0.342,0.095-0.664,0.187-0.967
			l2.031-2.029c0.263-0.065,0.537-0.099,0.827-0.099c0.044,0.004,0.087,0.005,0.128,0.005c0.263,0,0.457-0.073,0.581-0.221
			c0.29-0.276,0.31-0.736,0.06-1.38c-0.25-0.645-0.684-1.274-1.301-1.893c-0.631-0.632-1.264-1.068-1.9-1.311
			C-426.709,1004.057-426.97,1004-427.191,1004L-427.191,1004z M-433.123,1012.636l-2.877,4.315l4.316-2.877
			c-0.275-0.236-0.539-0.479-0.789-0.729C-432.645,1013.188-432.86,1012.95-433.123,1012.636L-433.123,1012.636z"/>
	</g>
</g>
<g transform="translate(150 50)">
	<path fill="#717A53" d="M59-34l4-4h-8L59-34z"/>
</g>
<g transform="translate(448 0)">
	<path fill="#FFFFFF" d="M-295,604v2h11v-2H-295z M-291,607v2h7v-2H-291z M-291,610v2h7v-2H-291z"/>
</g>
<g transform="translate(679 0)">
	<path fill="#FFFFFF" d="M-517.567,660.299l-0.383,0.951l0.7,1.399l0.083,0.183l-0.967,0.967l-1.601-0.767l-0.95,0.4l-0.482,1.467
		l-0.067,0.2h-1.383l-0.583-1.667l-0.95-0.384l-1.399,0.701l-0.15,0.082l-1-0.967l0.767-1.617l-0.399-0.933l-1.467-0.5l-0.2-0.05
		v-1.383l1.667-0.601l0.383-0.933l-0.7-1.4l-0.083-0.183l0.967-0.968l1.617,0.75l0.934-0.383l0.5-1.482l0.05-0.184h1.383l0.6,1.668
		l0.95,0.383l1.383-0.7l0.184-0.083l0.967,0.967l-0.75,1.6l0.383,0.95l1.483,0.483l0.183,0.066v1.383L-517.567,660.299z
		 M-521.95,660.982c0.533,0,0.989-0.189,1.367-0.566c0.378-0.379,0.566-0.834,0.566-1.367s-0.188-0.986-0.566-1.358
		s-0.834-0.558-1.367-0.558s-0.986,0.186-1.358,0.558s-0.558,0.825-0.558,1.358s0.186,0.988,0.558,1.367
		C-522.937,660.793-522.483,660.982-521.95,660.982z"/>
</g>
<g transform="translate(629 0)">
	<path fill="#FFFFFF" d="M-475,805h2v7h2l-3,4l-3-4h2V805"/>
</g>
<g transform="translate(629 0)" opacity="0.5">
	<path fill="#FFFFFF" d="M-475,807v-2h7v-2l4,3l-4,3v-2H-475"/>
</g>
<g transform="translate(724 0)">
	<path fill="#FFFFFF" d="M-558,860.799l-1.968,0.684c-0.188,1.166-0.711,2.178-1.566,3.033c-0.856,0.855-1.879,1.377-3.067,1.566
		l-0.667,1.918h-0.45l-0.649-1.918c-1.167-0.188-2.189-0.711-3.067-1.566c-0.822-0.822-1.339-1.833-1.55-3.033l-2-0.684v-0.467
		l2-0.683c0.188-1.178,0.705-2.188,1.55-3.033c0.855-0.854,1.872-1.378,3.05-1.567l0.667-1.982h0.45l0.684,1.982
		c1.199,0.189,2.216,0.711,3.05,1.567c0.855,0.855,1.378,1.861,1.566,3.017l1.968,0.701v0.467L-558,860.799z M-562.333,863.715
		c0.878-0.854,1.316-1.91,1.316-3.166c0-1.268-0.438-2.312-1.316-3.133c-0.855-0.879-1.905-1.317-3.15-1.317
		s-2.295,0.438-3.15,1.317c-0.866,0.844-1.3,1.889-1.3,3.133c0,1.222,0.434,2.277,1.3,3.166c0.855,0.879,1.905,1.317,3.15,1.317
		S-563.188,864.594-562.333,863.715z M-565.483,857.683c0.789,0,1.464,0.28,2.025,0.842c0.561,0.562,0.842,1.236,0.842,2.024
		c0,0.789-0.281,1.467-0.842,2.033c-0.562,0.566-1.236,0.851-2.025,0.851s-1.464-0.284-2.025-0.851
		c-0.561-0.566-0.842-1.244-0.842-2.033c0-0.788,0.281-1.463,0.842-2.024C-566.947,857.963-566.272,857.683-565.483,857.683z"/>
</g>
<g transform="translate(100 50)">
	<path fill="#FFFFFF" d="M-83,1265l-9,9h9l9-9l-9-9h-9L-83,1265z"/>
</g>
<g transform="translate(724 0)">
	<path fill="#FFFFFF" d="M-592.997,1314.946l-3.021,1.05c-0.29,1.789-1.092,3.343-2.405,4.655c-1.314,1.314-2.884,2.114-4.708,2.404
		l-1.023,2.944h-0.691l-0.996-2.944c-1.792-0.289-3.361-1.09-4.709-2.404c-1.263-1.261-2.056-2.813-2.379-4.655l-3.07-1.05v-0.717
		l3.07-1.047c0.289-1.809,1.081-3.359,2.379-4.656c1.312-1.312,2.874-2.115,4.682-2.406l1.023-3.043h0.691l1.049,3.043
		c1.841,0.291,3.401,1.092,4.682,2.406c1.313,1.312,2.115,2.856,2.404,4.63l3.021,1.077v0.717L-592.997,1314.946z
		 M-599.648,1319.423c1.348-1.312,2.021-2.933,2.021-4.86c0-1.945-0.673-3.548-2.021-4.809c-1.313-1.349-2.925-2.021-4.836-2.021
		s-3.523,0.673-4.836,2.021c-1.329,1.296-1.995,2.899-1.995,4.809c0,1.875,0.666,3.496,1.995,4.86
		c1.312,1.349,2.925,2.022,4.836,2.022S-600.962,1320.771-599.648,1319.423z M-604.484,1310.163c1.212,0,2.247,0.431,3.108,1.292
		c0.861,0.862,1.293,1.897,1.293,3.107c0,1.212-0.432,2.251-1.293,3.121s-1.896,1.306-3.108,1.306c-1.211,0-2.247-0.436-3.108-1.306
		s-1.293-1.909-1.293-3.121c0-1.21,0.432-2.245,1.293-3.107C-606.731,1310.594-605.695,1310.163-604.484,1310.163z"/>
</g>
<g transform="translate(250 50)">
	<path fill="#FFFFFF" d="M-40,705h1c0.078,0.034,0.172,0.083,0.283,0.15c0.11,0.066,0.258,0.188,0.441,0.366
		C-38.091,705.695-38,705.856-38,706v1h-10v-1c0-0.3,0.084-0.533,0.25-0.7c0.166-0.166,0.334-0.256,0.5-0.267L-47,705h1v-1
		c0-0.278,0.103-0.514,0.309-0.708c0.205-0.193,0.436-0.291,0.691-0.292h4c0.277,0,0.514,0.095,0.708,0.283S-40,703.711-40,704V705z
		 M-45,705h4c0-0.278-0.1-0.514-0.3-0.708c-0.2-0.193-0.434-0.291-0.7-0.292h-2c-0.267,0-0.5,0.101-0.7,0.3
		C-44.9,704.5-45,704.733-45,705z M-41,708h2v6c0,0.3-0.084,0.534-0.25,0.7s-0.334,0.256-0.5,0.268L-40,715h-6
		c-0.078,0-0.172-0.009-0.283-0.024c-0.11-0.018-0.258-0.109-0.441-0.275C-46.909,714.534-47,714.3-47,714v-6h2v5h1v-5h2v5h1V708z"
		/>
</g>
<g>
	<path fill="#514B38" d="M13,1156v7H3v-7H13 M13,1154H3c-1.104,0-2,0.896-2,2v7c0,1.104,0.896,2,2,2h10c1.104,0,2-0.896,2-2v-7
		C15,1154.896,14.104,1154,13,1154L13,1154z"/>
</g>
<rect x="7.5" y="1159.5" opacity="0.4" fill="#514B38" stroke="#514B38" stroke-miterlimit="10" width="6" height="5"/>
<rect x="7.5" y="1159.5" fill="none" stroke="#514B38" stroke-miterlimit="10" width="6" height="5"/>
<g>
	<path fill="#43AAA4" d="M63,1156v7H53v-7H63 M63,1154H53c-1.104,0-2,0.896-2,2v7c0,1.104,0.896,2,2,2h10c1.104,0,2-0.896,2-2v-7
		C65,1154.896,64.104,1154,63,1154L63,1154z"/>
</g>
<rect x="57.5" y="1159.5" opacity="0.4" fill="#43AAA4" stroke="#43AAA4" stroke-miterlimit="10" width="6" height="5"/>
<rect x="57.5" y="1159.5" fill="none" stroke="#43AAA4" stroke-miterlimit="10" width="6" height="5"/>
<g>
	<path fill="#FFFFFF" d="M163,1156v7h-10v-7H163 M163,1154h-10c-1.104,0-2,0.896-2,2v7c0,1.104,0.896,2,2,2h10c1.104,0,2-0.896,2-2
		v-7C165,1154.896,164.104,1154,163,1154L163,1154z"/>
</g>
<rect x="157.5" y="1159.5" opacity="0.4" fill="#FFFFFF" stroke="#FFFFFF" stroke-miterlimit="10" width="6" height="5"/>
<rect x="157.5" y="1159.5" fill="none" stroke="#FFFFFF" stroke-miterlimit="10" width="6" height="5"/>
<g transform="translate(350 0)">
	<path fill="#5FBA83" d="M-135.826,503l0.279,0.62c-1.356,1.257-2.599,2.699-3.727,4.327c-1.128,1.628-1.906,2.984-2.336,4.07
		l-4.391-4.455l1.136-0.899l2.527,1.991C-140.48,506.411-138.31,504.527-135.826,503z"/>
</g>
<g>
	<g>
		<polygon fill-rule="evenodd" clip-rule="evenodd" fill="#F15A24" points="212.414,455.414 211,454 208.207,456.793 205.414,454 
			204,455.414 206.793,458.207 204,461 205.414,462.414 208.207,459.621 211,462.414 212.414,461 209.621,458.207 		"/>
	</g>
</g>
<g transform="translate(50 50)">
	<path fill="#43AAA4" d="M3,110h5v3l5-4.5L8,104v3H3V110z"/>
</g>
<g transform="translate(50 50)">
	<path fill="#5FBA83" d="M53,110h5v3l5-4.5l-5-4.5v3h-5V110z"/>
</g>
<g transform="translate(100 50)">
	<path fill="#43AAA4" d="M-35,1266l-9,9h9l9-9l-9-9h-9L-35,1266z"/>
</g>
<circle fill="#797F64" cx="14" cy="1364" r="7"/>
<g transform="translate(100 50)">
	<path fill="#FFFFFF" d="M-84.6,1314.1l-3.9,3.9h2.6l3.9-3.9l-3.9-3.899h-2.6L-84.6,1314.1z"/>
</g>
<circle fill="#CE8D7B" cx="63" cy="1364" r="7"/>
<rect x="58" y="1363" transform="matrix(0.7072 -0.7071 0.7071 0.7072 -945.9778 443.9844)" fill="#FFFFFF" width="10" height="2"/>
</svg>
