<?xml version="1.0" encoding="utf-8"?>
<!-- Generator: Adobe Illustrator 16.0.4, SVG Export Plug-In . SVG Version: 6.00 Build 0)  -->
<!DOCTYPE svg PUBLIC "-//W3C//DTD SVG 1.1//EN" "http://www.w3.org/Graphics/SVG/1.1/DTD/svg11.dtd">
<svg version="1.1" id="Ebene_1" xmlns="http://www.w3.org/2000/svg" xmlns:xlink="http://www.w3.org/1999/xlink" x="0px" y="0px"
	 width="12px" height="64px" viewBox="0 0 12 64" enable-background="new 0 0 12 64" xml:space="preserve">
<g opacity="0.3">
	<line fill="none" stroke="#FFFFFF" stroke-width="0.7087" stroke-miterlimit="10" x1="-114" y1="114" x2="2.025" y2="-2.025"/>
	<line fill="none" stroke="#FFFFFF" stroke-width="0.7087" stroke-miterlimit="10" x1="-110" y1="114" x2="6.025" y2="-2.025"/>
	<line fill="none" stroke="#FFFFFF" stroke-width="0.7087" stroke-miterlimit="10" x1="-106" y1="114" x2="10.025" y2="-2.025"/>
	<line fill="none" stroke="#FFFFFF" stroke-width="0.7087" stroke-miterlimit="10" x1="-102" y1="114" x2="14.025" y2="-2.025"/>
	<line fill="none" stroke="#FFFFFF" stroke-width="0.7087" stroke-miterlimit="10" x1="-98" y1="114" x2="18.025" y2="-2.025"/>
	<line fill="none" stroke="#FFFFFF" stroke-width="0.7087" stroke-miterlimit="10" x1="-94" y1="114" x2="22.025" y2="-2.025"/>
	<line fill="none" stroke="#FFFFFF" stroke-width="0.7087" stroke-miterlimit="10" x1="-90" y1="114" x2="26.025" y2="-2.025"/>
	<line fill="none" stroke="#FFFFFF" stroke-width="0.7087" stroke-miterlimit="10" x1="-86" y1="114" x2="30.025" y2="-2.025"/>
	<line fill="none" stroke="#FFFFFF" stroke-width="0.7087" stroke-miterlimit="10" x1="-82" y1="114" x2="34.025" y2="-2.025"/>
	<line fill="none" stroke="#FFFFFF" stroke-width="0.7087" stroke-miterlimit="10" x1="-78" y1="114" x2="38.025" y2="-2.025"/>
	<line fill="none" stroke="#FFFFFF" stroke-width="0.7087" stroke-miterlimit="10" x1="-74" y1="114" x2="42.025" y2="-2.025"/>
	<line fill="none" stroke="#FFFFFF" stroke-width="0.7087" stroke-miterlimit="10" x1="-70" y1="114" x2="46.025" y2="-2.025"/>
	<line fill="none" stroke="#FFFFFF" stroke-width="0.7087" stroke-miterlimit="10" x1="-66" y1="114" x2="50.025" y2="-2.025"/>
	<line fill="none" stroke="#FFFFFF" stroke-width="0.7087" stroke-miterlimit="10" x1="-62" y1="114" x2="54.025" y2="-2.025"/>
	<line fill="none" stroke="#FFFFFF" stroke-width="0.7087" stroke-miterlimit="10" x1="-58" y1="114" x2="58.025" y2="-2.025"/>
	<line fill="none" stroke="#FFFFFF" stroke-width="0.7087" stroke-miterlimit="10" x1="-54" y1="114" x2="62.025" y2="-2.025"/>
	<line fill="none" stroke="#FFFFFF" stroke-width="0.7087" stroke-miterlimit="10" x1="-50" y1="114" x2="66.025" y2="-2.025"/>
	<line fill="none" stroke="#FFFFFF" stroke-width="0.7087" stroke-miterlimit="10" x1="-46" y1="114" x2="70.025" y2="-2.025"/>
	<line fill="none" stroke="#FFFFFF" stroke-width="0.7087" stroke-miterlimit="10" x1="-42" y1="114" x2="74.025" y2="-2.025"/>
	<line fill="none" stroke="#FFFFFF" stroke-width="0.7087" stroke-miterlimit="10" x1="-38" y1="114" x2="78.025" y2="-2.025"/>
	<line fill="none" stroke="#FFFFFF" stroke-width="0.7087" stroke-miterlimit="10" x1="-34" y1="114" x2="82.025" y2="-2.025"/>
	<line fill="none" stroke="#FFFFFF" stroke-width="0.7087" stroke-miterlimit="10" x1="-30" y1="114" x2="86.025" y2="-2.025"/>
	<line fill="none" stroke="#FFFFFF" stroke-width="0.7087" stroke-miterlimit="10" x1="-26" y1="114" x2="90.025" y2="-2.025"/>
	<line fill="none" stroke="#FFFFFF" stroke-width="0.7087" stroke-miterlimit="10" x1="-22" y1="114" x2="94.025" y2="-2.025"/>
	<line fill="none" stroke="#FFFFFF" stroke-width="0.7087" stroke-miterlimit="10" x1="-18" y1="114" x2="98.025" y2="-2.025"/>
	<line fill="none" stroke="#FFFFFF" stroke-width="0.7087" stroke-miterlimit="10" x1="-14" y1="114" x2="102.025" y2="-2.025"/>
	<line fill="none" stroke="#FFFFFF" stroke-width="0.7087" stroke-miterlimit="10" x1="-10" y1="114" x2="106.025" y2="-2.025"/>
	<line fill="none" stroke="#FFFFFF" stroke-width="0.7087" stroke-miterlimit="10" x1="-6" y1="114" x2="110.025" y2="-2.025"/>
	<line fill="none" stroke="#FFFFFF" stroke-width="0.7087" stroke-miterlimit="10" x1="-2" y1="114" x2="114.025" y2="-2.025"/>
	<line fill="none" stroke="#FFFFFF" stroke-width="0.7087" stroke-miterlimit="10" x1="2" y1="114" x2="118.025" y2="-2.025"/>
	<line fill="none" stroke="#FFFFFF" stroke-width="0.7087" stroke-miterlimit="10" x1="6" y1="114" x2="122.025" y2="-2.025"/>
	<line fill="none" stroke="#FFFFFF" stroke-width="0.7087" stroke-miterlimit="10" x1="10" y1="114" x2="126.025" y2="-2.025"/>
</g>
</svg>
