<?xml version="1.0" encoding="utf-8"?>
<!-- Generator: Adobe Illustrator 16.0.4, SVG Export Plug-In . SVG Version: 6.00 Build 0)  -->
<!DOCTYPE svg PUBLIC "-//W3C//DTD SVG 1.1//EN" "http://www.w3.org/Graphics/SVG/1.1/DTD/svg11.dtd">
<svg version="1.1" id="Ebene_1" xmlns="http://www.w3.org/2000/svg" xmlns:xlink="http://www.w3.org/1999/xlink" x="0px" y="0px"
	 width="12px" height="64px" viewBox="0 0 12 64" enable-background="new 0 0 12 64" xml:space="preserve">
<g opacity="0.2">
	<line fill="none" stroke="#878787" stroke-width="0.7087" stroke-miterlimit="10" x1="126.025" y1="114" x2="10" y2="-2.025"/>
	<line fill="none" stroke="#878787" stroke-width="0.7087" stroke-miterlimit="10" x1="122.025" y1="114" x2="6" y2="-2.025"/>
	<line fill="none" stroke="#878787" stroke-width="0.7087" stroke-miterlimit="10" x1="118.025" y1="114" x2="2" y2="-2.025"/>
	<line fill="none" stroke="#878787" stroke-width="0.7087" stroke-miterlimit="10" x1="114.025" y1="114" x2="-2" y2="-2.025"/>
	<line fill="none" stroke="#878787" stroke-width="0.7087" stroke-miterlimit="10" x1="110.025" y1="114" x2="-6" y2="-2.025"/>
	<line fill="none" stroke="#878787" stroke-width="0.7087" stroke-miterlimit="10" x1="106.025" y1="114" x2="-10" y2="-2.025"/>
	<line fill="none" stroke="#878787" stroke-width="0.7087" stroke-miterlimit="10" x1="102.025" y1="114" x2="-14" y2="-2.025"/>
	<line fill="none" stroke="#878787" stroke-width="0.7087" stroke-miterlimit="10" x1="98.025" y1="114" x2="-18" y2="-2.025"/>
	<line fill="none" stroke="#878787" stroke-width="0.7087" stroke-miterlimit="10" x1="94.025" y1="114" x2="-22" y2="-2.025"/>
	<line fill="none" stroke="#878787" stroke-width="0.7087" stroke-miterlimit="10" x1="90.025" y1="114" x2="-26" y2="-2.025"/>
	<line fill="none" stroke="#878787" stroke-width="0.7087" stroke-miterlimit="10" x1="86.025" y1="114" x2="-30" y2="-2.025"/>
	<line fill="none" stroke="#878787" stroke-width="0.7087" stroke-miterlimit="10" x1="82.025" y1="114" x2="-34" y2="-2.025"/>
	<line fill="none" stroke="#878787" stroke-width="0.7087" stroke-miterlimit="10" x1="78.025" y1="114" x2="-38" y2="-2.025"/>
	<line fill="none" stroke="#878787" stroke-width="0.7087" stroke-miterlimit="10" x1="74.025" y1="114" x2="-42" y2="-2.025"/>
	<line fill="none" stroke="#878787" stroke-width="0.7087" stroke-miterlimit="10" x1="70.025" y1="114" x2="-46" y2="-2.025"/>
	<line fill="none" stroke="#878787" stroke-width="0.7087" stroke-miterlimit="10" x1="66.025" y1="114" x2="-50" y2="-2.025"/>
	<line fill="none" stroke="#878787" stroke-width="0.7087" stroke-miterlimit="10" x1="62.025" y1="114" x2="-54" y2="-2.025"/>
	<line fill="none" stroke="#878787" stroke-width="0.7087" stroke-miterlimit="10" x1="58.025" y1="114" x2="-58" y2="-2.025"/>
	<line fill="none" stroke="#878787" stroke-width="0.7087" stroke-miterlimit="10" x1="54.025" y1="114" x2="-62" y2="-2.025"/>
	<line fill="none" stroke="#878787" stroke-width="0.7087" stroke-miterlimit="10" x1="50.025" y1="114" x2="-66" y2="-2.025"/>
	<line fill="none" stroke="#878787" stroke-width="0.7087" stroke-miterlimit="10" x1="46.025" y1="114" x2="-70" y2="-2.025"/>
	<line fill="none" stroke="#878787" stroke-width="0.7087" stroke-miterlimit="10" x1="42.025" y1="114" x2="-74" y2="-2.025"/>
	<line fill="none" stroke="#878787" stroke-width="0.7087" stroke-miterlimit="10" x1="38.025" y1="114" x2="-78" y2="-2.025"/>
	<line fill="none" stroke="#878787" stroke-width="0.7087" stroke-miterlimit="10" x1="34.025" y1="114" x2="-82" y2="-2.025"/>
	<line fill="none" stroke="#878787" stroke-width="0.7087" stroke-miterlimit="10" x1="30.025" y1="114" x2="-86" y2="-2.025"/>
	<line fill="none" stroke="#878787" stroke-width="0.7087" stroke-miterlimit="10" x1="26.025" y1="114" x2="-90" y2="-2.025"/>
	<line fill="none" stroke="#878787" stroke-width="0.7087" stroke-miterlimit="10" x1="22.025" y1="114" x2="-94" y2="-2.025"/>
	<line fill="none" stroke="#878787" stroke-width="0.7087" stroke-miterlimit="10" x1="18.025" y1="114" x2="-98" y2="-2.025"/>
	<line fill="none" stroke="#878787" stroke-width="0.7087" stroke-miterlimit="10" x1="14.025" y1="114" x2="-102" y2="-2.025"/>
	<line fill="none" stroke="#878787" stroke-width="0.7087" stroke-miterlimit="10" x1="10.025" y1="114" x2="-106" y2="-2.025"/>
	<line fill="none" stroke="#878787" stroke-width="0.7087" stroke-miterlimit="10" x1="6.025" y1="114" x2="-110" y2="-2.025"/>
	<line fill="none" stroke="#878787" stroke-width="0.7087" stroke-miterlimit="10" x1="2.025" y1="114" x2="-114" y2="-2.025"/>
</g>
</svg>
